<svg width="135" height="40" viewBox="0 0 135 40" fill="none" xmlns="http://www.w3.org/2000/svg">
<g clip-path="url(#clip0_43_2099)">
<path d="M130.2 40H4.73C3.47634 39.9974 2.27478 39.4982 1.3883 38.6117C0.501828 37.7252 0.00264208 36.5237 0 35.27L0 4.73C0 3.47553 0.498338 2.27243 1.38538 1.38538C2.27243 0.498338 3.47553 2.71788e-08 4.73 2.71788e-08H130.2C131.461 -0.000134071 132.671 0.495959 133.57 1.38105C134.468 2.26614 134.982 3.46913 135 4.73V35.27C134.982 36.5309 134.468 37.7339 133.57 38.6189C132.671 39.504 131.461 40.0001 130.2 40Z" fill="#A6A6A6"/>
<path d="M134 35.27C134 36.2858 133.596 37.26 132.878 37.9782C132.16 38.6965 131.186 39.1 130.17 39.1H4.72989C4.22609 39.1013 3.72698 39.0032 3.26114 38.8113C2.79531 38.6195 2.37192 38.3376 2.01521 37.9818C1.6585 37.626 1.37549 37.2033 1.18239 36.738C0.989287 36.2727 0.889891 35.7738 0.889893 35.27V4.73001C0.889893 3.71158 1.29446 2.73486 2.0146 2.01472C2.73474 1.29458 3.71146 0.890015 4.72989 0.890015H130.2C131.212 0.897941 132.18 1.30633 132.892 2.02589C133.604 2.74546 134.003 3.71768 134 4.73001V35.27Z" fill="black"/>
<path d="M30.1301 19.78C30.1435 18.803 30.4036 17.8453 30.8861 16.9956C31.3686 16.146 32.0579 15.432 32.8901 14.92C32.3604 14.1635 31.6616 13.541 30.8492 13.1018C30.0368 12.6626 29.1331 12.4189 28.2101 12.39C26.2101 12.18 24.3401 13.57 23.3301 13.57C22.3201 13.57 20.7601 12.41 19.1001 12.45C18.0247 12.4855 16.9768 12.7989 16.0585 13.3597C15.1402 13.9205 14.3828 14.7095 13.8601 15.65C11.5901 19.57 13.2801 25.34 15.4601 28.51C16.5501 30.06 17.8201 31.8 19.4601 31.74C21.1001 31.68 21.6901 30.74 23.6501 30.74C25.6101 30.74 26.1601 31.74 27.8601 31.74C29.5601 31.74 30.7001 30.18 31.7501 28.61C32.5307 27.5048 33.1315 26.2831 33.5301 24.99C32.5117 24.555 31.6452 23.8279 31.04 22.9006C30.4349 21.9732 30.1182 20.8873 30.1301 19.78Z" fill="white"/>
<path d="M26.93 10.31C27.8823 9.16906 28.3522 7.70183 28.24 6.21997C26.7874 6.37108 25.445 7.06371 24.48 8.15997C24.0086 8.69633 23.6475 9.32042 23.4176 9.9965C23.1877 10.6726 23.0933 11.3874 23.14 12.1C23.866 12.1077 24.5843 11.9506 25.2407 11.6405C25.8972 11.3305 26.4748 10.8755 26.93 10.31Z" fill="white"/>
<path d="M53.68 31.5H51.41L50.1699 27.59H45.84L44.66 31.5H42.45L46.7299 18.2H49.38L53.68 31.5ZM49.79 26L48.6699 22.52C48.5499 22.14 48.3266 21.3 48 20C47.8666 20.5666 47.6566 21.4033 47.3699 22.51L46.22 26H49.79Z" fill="white"/>
<path d="M64.7 26.59C64.7789 28.0025 64.3055 29.3902 63.38 30.46C63.0084 30.868 62.5538 31.1915 62.0466 31.4089C61.5395 31.6262 60.9916 31.7323 60.44 31.72C59.9057 31.7628 59.3699 31.6587 58.8905 31.419C58.4111 31.1793 58.0063 30.8131 57.72 30.36V35.41H55.54V25.07C55.54 24.0434 55.5133 22.99 55.46 21.91H57.34L57.46 23.43C57.7823 22.9348 58.216 22.5218 58.7264 22.224C59.2368 21.9263 59.8097 21.752 60.3995 21.715C60.9892 21.6781 61.5795 21.7796 62.123 22.0114C62.6665 22.2432 63.1484 22.5989 63.53 23.05C64.3358 24.0494 64.7516 25.3073 64.7 26.59ZM62.53 26.67C62.5608 25.8538 62.3409 25.0476 61.9 24.36C61.6906 24.0528 61.4061 23.8042 61.0735 23.638C60.7409 23.4717 60.3714 23.3932 60 23.41C59.4768 23.4086 58.97 23.5929 58.57 23.93C58.1421 24.2777 57.8457 24.761 57.73 25.3C57.6711 25.512 57.6376 25.7302 57.63 25.95V27.55C57.6108 28.1999 57.8396 28.8327 58.27 29.32C58.4882 29.5568 58.7572 29.7409 59.0569 29.8587C59.3565 29.9765 59.679 30.0248 60 30C60.3662 30.0156 60.7305 29.9385 61.0592 29.776C61.3878 29.6134 61.6701 29.3706 61.88 29.07C62.3404 28.3569 62.5676 27.5181 62.53 26.67Z" fill="white"/>
<path d="M75.74 26.59C75.8189 28.0025 75.3456 29.3902 74.42 30.46C74.0485 30.868 73.5938 31.1915 73.0866 31.4089C72.5795 31.6262 72.0316 31.7323 71.48 31.72C70.9457 31.7628 70.4099 31.6587 69.9305 31.419C69.4511 31.1793 69.0463 30.8131 68.76 30.36V35.41H66.57V25.07C66.57 24.0434 66.5433 22.99 66.49 21.91H68.37L68.49 23.43C68.8124 22.9348 69.246 22.5218 69.7564 22.224C70.2668 21.9263 70.8398 21.752 71.4295 21.715C72.0193 21.6781 72.6095 21.7796 73.153 22.0114C73.6966 22.2432 74.1784 22.5989 74.56 23.05C75.3686 24.0484 75.7879 25.3061 75.74 26.59ZM73.57 26.67C73.6008 25.8538 73.3809 25.0476 72.94 24.36C72.7342 24.0587 72.4561 23.8138 72.1312 23.6478C71.8062 23.4818 71.4448 23.4001 71.08 23.41C70.5568 23.4086 70.0501 23.5929 69.65 23.93C69.2221 24.2777 68.9258 24.761 68.81 25.3C68.7517 25.5121 68.7181 25.7302 68.71 25.95V27.55C68.6918 28.1997 68.9205 28.8322 69.35 29.32C69.5595 29.546 69.8155 29.7238 70.1003 29.8412C70.3852 29.9586 70.6921 30.0128 71 30C71.3663 30.0156 71.7306 29.9385 72.0592 29.776C72.3878 29.6134 72.6701 29.3706 72.88 29.07C73.351 28.3604 73.5888 27.5213 73.56 26.67H73.57Z" fill="white"/>
<path d="M88.0801 27.77C88.0969 28.2883 88 28.804 87.7961 29.2809C87.5923 29.7577 87.2864 30.1841 86.9001 30.53C85.8811 31.3562 84.5894 31.7701 83.2801 31.69C82.0745 31.7474 80.8776 31.4594 79.8301 30.86L80.3201 29.08C81.2476 29.6446 82.3143 29.939 83.4001 29.93C84.0716 29.9703 84.7362 29.7758 85.2801 29.38C85.497 29.2072 85.6705 28.9861 85.7869 28.7344C85.9032 28.4826 85.9591 28.2072 85.9501 27.93C85.9554 27.6779 85.9094 27.4273 85.8148 27.1935C85.7203 26.9597 85.5792 26.7476 85.4001 26.57C84.8615 26.1144 84.2353 25.7741 83.5601 25.57C81.2267 24.6967 80.0601 23.4233 80.0601 21.75C80.0373 21.2286 80.1356 20.7089 80.3472 20.2318C80.5589 19.7547 80.8782 19.3331 81.2801 19C82.2095 18.2822 83.3681 17.9268 84.5401 18C85.5761 17.9663 86.6051 18.1824 87.5401 18.63L87.0001 20.37C86.2153 19.9543 85.338 19.7444 84.4501 19.76C83.8158 19.7212 83.1894 19.917 82.6901 20.31C82.5209 20.4604 82.3861 20.6454 82.2946 20.8524C82.2032 21.0594 82.1573 21.2837 82.1601 21.51C82.1557 21.7589 82.2085 22.0055 82.3142 22.2308C82.4199 22.4562 82.5759 22.6543 82.7701 22.81C83.3567 23.2429 84.0081 23.5804 84.7001 23.81C85.6579 24.146 86.5241 24.7007 87.2301 25.43C87.8017 26.0729 88.1058 26.9101 88.0801 27.77Z" fill="white"/>
<path d="M95.12 23.51H92.77V28.17C92.77 29.3567 93.1833 29.95 94.01 29.95C94.3296 29.9572 94.6488 29.9236 94.96 29.85L95 31.46C94.4649 31.6364 93.9031 31.7176 93.34 31.7C92.9707 31.7245 92.6005 31.6683 92.2552 31.5353C91.9098 31.4024 91.5975 31.1958 91.34 30.93C90.7934 30.1831 90.5407 29.2612 90.63 28.34V23.5H89.23V21.9H90.63V20.15L92.72 19.52V21.9H95.07V23.5L95.12 23.51Z" fill="white"/>
<path d="M105.73 26.63C105.783 27.9556 105.333 29.2521 104.47 30.26C104.026 30.7442 103.483 31.1257 102.876 31.3779C102.27 31.63 101.616 31.7468 100.96 31.72C100.33 31.748 99.7014 31.6371 99.119 31.3952C98.5366 31.1532 98.0146 30.7862 97.5899 30.32C96.7416 29.3439 96.2949 28.0824 96.3399 26.79C96.2862 25.4529 96.748 24.1463 97.6299 23.14C98.074 22.6646 98.6161 22.2913 99.2188 22.0462C99.8214 21.801 100.47 21.6897 101.12 21.72C101.752 21.6951 102.383 21.8073 102.968 22.049C103.553 22.2906 104.079 22.656 104.51 23.12C105.347 24.0929 105.783 25.3476 105.73 26.63ZM103.52 26.7C103.544 25.9019 103.346 25.1129 102.95 24.42C102.768 24.0628 102.488 23.765 102.142 23.5613C101.797 23.3576 101.401 23.2566 101 23.27C100.592 23.2506 100.186 23.3486 99.8317 23.5524C99.4772 23.7562 99.1886 24.0572 98.9999 24.42C98.6001 25.1261 98.4028 25.9289 98.4299 26.74C98.4309 27.5379 98.6524 28.32 99.0699 29C99.2556 29.3493 99.5328 29.6416 99.872 29.8454C100.211 30.0492 100.599 30.1568 100.995 30.1568C101.391 30.1568 101.779 30.0492 102.118 29.8454C102.457 29.6416 102.734 29.3493 102.92 29C103.331 28.3043 103.538 27.5076 103.52 26.7Z" fill="white"/>
<path d="M112.66 23.78C112.439 23.7391 112.215 23.719 111.99 23.72C111.652 23.7027 111.315 23.7717 111.01 23.9204C110.706 24.069 110.444 24.2926 110.25 24.57C109.878 25.1317 109.692 25.7966 109.72 26.47V31.47H107.59V24.9C107.59 23.7933 107.563 22.7933 107.51 21.9H109.37L109.45 23.74H109.51C109.712 23.1402 110.083 22.6121 110.58 22.22C111.025 21.8882 111.565 21.7093 112.12 21.71C112.296 21.6963 112.474 21.6963 112.65 21.71V23.71L112.66 23.78Z" fill="white"/>
<path d="M122.19 26.25C122.197 26.5852 122.17 26.9202 122.11 27.25H115.71C115.697 27.6577 115.774 28.0633 115.934 28.4382C116.095 28.8132 116.336 29.1483 116.64 29.42C117.235 29.8851 117.976 30.1227 118.73 30.09C119.614 30.1035 120.492 29.9508 121.32 29.64L121.66 31.12C120.639 31.5365 119.543 31.7374 118.44 31.71C117.798 31.745 117.155 31.6467 116.553 31.4212C115.951 31.1958 115.401 30.8481 114.94 30.4C114.505 29.9269 114.169 29.3721 113.951 28.7677C113.733 28.1634 113.637 27.5217 113.67 26.88C113.623 25.5749 114.041 24.2955 114.85 23.27C115.25 22.7676 115.762 22.3664 116.346 22.0988C116.93 21.8313 117.568 21.7049 118.21 21.73C118.821 21.6968 119.431 21.8209 119.981 22.0905C120.531 22.3601 121.002 22.7662 121.35 23.27C121.928 24.1542 122.221 25.1942 122.19 26.25ZM120.19 25.7C120.215 25.1239 120.069 24.5532 119.77 24.06C119.594 23.7712 119.343 23.5357 119.044 23.3789C118.744 23.2221 118.408 23.1499 118.07 23.17C117.737 23.1618 117.406 23.2371 117.109 23.389C116.813 23.541 116.558 23.7648 116.37 24.04C116.008 24.5228 115.789 25.0983 115.74 25.7H120.18H120.19Z" fill="white"/>
<path d="M47.43 13.43H43.71V6.89001H44.71V12.54H47.38V13.42L47.43 13.43Z" fill="white"/>
<path d="M52.3701 13.4299H51.4201L51.3401 12.8899C51.1811 13.1033 50.972 13.2742 50.7314 13.3875C50.4907 13.5009 50.2258 13.5532 49.9601 13.5399C49.7599 13.5485 49.5602 13.5146 49.3741 13.4405C49.1879 13.3664 49.0196 13.2537 48.8801 13.1099C48.7532 12.9774 48.655 12.8203 48.5913 12.6483C48.5277 12.4763 48.5 12.2931 48.5101 12.1099C48.4991 11.8453 48.5602 11.5827 48.6871 11.3501C48.8139 11.1176 49.0016 10.924 49.2301 10.7899C49.842 10.4571 50.5345 10.3013 51.2301 10.3399V10.2999C51.247 10.1675 51.2322 10.033 51.1868 9.90745C51.1414 9.78191 51.0667 9.66901 50.9689 9.5781C50.8712 9.48719 50.7532 9.42089 50.6247 9.38469C50.4962 9.34849 50.3609 9.34343 50.2301 9.36994C49.7944 9.36163 49.3661 9.4835 49.0001 9.71994L48.8301 8.99994C49.3203 8.7126 49.8821 8.57042 50.4501 8.58994C50.7091 8.55987 50.9716 8.59053 51.2168 8.67948C51.462 8.76844 51.683 8.91325 51.8625 9.10246C52.042 9.29166 52.175 9.52006 52.251 9.76956C52.3269 10.0191 52.3437 10.2828 52.3001 10.5399V12.2799C52.2929 12.6645 52.3163 13.0491 52.3701 13.4299ZM51.2801 11.8099V11.0899C50.1201 11.0899 49.5401 11.4066 49.5401 12.0399C49.5324 12.1406 49.5463 12.2417 49.5808 12.3365C49.6153 12.4313 49.6696 12.5177 49.7401 12.5899C49.8808 12.713 50.0633 12.7774 50.2501 12.7699C50.4817 12.7685 50.7065 12.6912 50.8901 12.5499C51.0796 12.4211 51.2122 12.2241 51.2601 11.9999C51.2741 11.9376 51.2808 11.8738 51.2801 11.8099Z" fill="white"/>
<path d="M58.32 13.43H57.39V12.67C57.251 12.9461 57.0335 13.175 56.7649 13.328C56.4962 13.481 56.1884 13.5513 55.88 13.53C55.6077 13.5351 55.338 13.4773 55.0917 13.3611C54.8454 13.2449 54.6292 13.0734 54.46 12.86C54.0697 12.3665 53.8709 11.7486 53.9 11.12C53.8699 10.4495 54.0869 9.79118 54.51 9.27005C54.6897 9.05928 54.9138 8.89082 55.1662 8.77673C55.4186 8.66263 55.6931 8.60571 55.97 8.61005C56.2292 8.58343 56.4907 8.62915 56.7255 8.74212C56.9602 8.85509 57.1591 9.03091 57.3 9.25005V6.55005H58.3V12.16C58.2867 12.62 58.2934 13.0434 58.32 13.43ZM57.23 11.43V10.66C57.2418 10.5504 57.2418 10.4397 57.23 10.33C57.175 10.0816 57.0419 9.85726 56.85 9.69005C56.659 9.51625 56.4082 9.42308 56.15 9.43005C55.9695 9.42436 55.7904 9.46448 55.6295 9.54666C55.4687 9.62884 55.3312 9.75042 55.23 9.90005C54.9937 10.2508 54.8747 10.6674 54.89 11.09C54.8697 11.4948 54.982 11.8951 55.21 12.23C55.3119 12.379 55.4495 12.5001 55.6102 12.5822C55.7709 12.6643 55.9496 12.7048 56.13 12.7C56.2895 12.706 56.448 12.6736 56.5924 12.6058C56.7368 12.538 56.8628 12.4365 56.96 12.31C57.152 12.0621 57.2479 11.7531 57.23 11.44V11.43Z" fill="white"/>
<path d="M63.9999 10.85C64.0151 11.0096 64.0151 11.1704 63.9999 11.33H60.8399C60.8332 11.5312 60.871 11.7314 60.9505 11.9163C61.03 12.1012 61.1493 12.2664 61.2999 12.4C61.5849 12.6226 61.9384 12.7392 62.2999 12.73C62.7333 12.7369 63.1641 12.6622 63.5699 12.51L63.7299 13.24C63.2287 13.4441 62.6909 13.5429 62.1499 13.53C61.8346 13.5477 61.519 13.5 61.223 13.3898C60.927 13.2797 60.657 13.1095 60.4299 12.89C60.217 12.6571 60.0526 12.3842 59.9462 12.0872C59.8397 11.7903 59.7934 11.4751 59.8099 11.16C59.7872 10.5199 59.9927 9.89252 60.3899 9.38999C60.5854 9.14206 60.8368 8.94394 61.1236 8.81185C61.4104 8.67975 61.7244 8.61744 62.0399 8.62999C62.3401 8.6146 62.6393 8.67637 62.9089 8.80942C63.1785 8.94246 63.4095 9.14234 63.5799 9.38999C63.8667 9.82187 64.0134 10.3317 63.9999 10.85ZM62.9999 10.58C63.0152 10.2961 62.9456 10.0141 62.7999 9.76999C62.7151 9.63523 62.5969 9.52476 62.4566 9.44939C62.3164 9.37402 62.159 9.33633 61.9999 9.33999C61.837 9.33864 61.6762 9.3771 61.5316 9.45204C61.3869 9.52698 61.2627 9.63613 61.1699 9.76999C60.993 10.0058 60.8856 10.2864 60.8599 10.58H62.9999Z" fill="white"/>
<path d="M69.6399 13.4299H68.6399V10.7299C68.6399 9.89661 68.3232 9.47994 67.6899 9.47994C67.5462 9.47869 67.404 9.50841 67.2728 9.56709C67.1417 9.62576 67.0247 9.712 66.9299 9.81994C66.7381 10.0458 66.635 10.3337 66.6399 10.6299V13.4299H65.6399V10.0699C65.6399 9.65661 65.6399 9.20661 65.6399 8.71994H66.5599V9.45994C66.6865 9.22565 66.8728 9.029 67.0999 8.88994C67.3701 8.7205 67.681 8.62721 67.9999 8.61994C68.1993 8.60681 68.3994 8.63366 68.5882 8.69891C68.7771 8.76417 68.9511 8.86652 69.0999 8.99994C69.2916 9.20935 69.4384 9.45579 69.5313 9.72408C69.6242 9.99237 69.6611 10.2768 69.6399 10.5599V13.3799V13.4299Z" fill="white"/>
<path d="M75.48 7.30997C75.4844 7.39502 75.4706 7.48004 75.4395 7.55935C75.4085 7.63866 75.3609 7.71046 75.3 7.76997C75.1733 7.88969 75.0043 7.9544 74.83 7.94997C74.7483 7.95152 74.6671 7.93636 74.5914 7.9054C74.5158 7.87445 74.4472 7.82836 74.39 7.76997C74.3309 7.71124 74.2844 7.64101 74.2534 7.56361C74.2224 7.48621 74.2077 7.40329 74.21 7.31997C74.2064 7.23649 74.2206 7.15321 74.2517 7.07563C74.2827 6.99805 74.3299 6.92795 74.39 6.86997C74.5149 6.75753 74.677 6.69531 74.845 6.69531C75.0131 6.69531 75.1751 6.75753 75.3 6.86997C75.3589 6.92681 75.4053 6.99529 75.4363 7.07103C75.4673 7.14678 75.4822 7.22815 75.48 7.30997ZM75.36 13.43H74.36V8.71997H75.36V13.44V13.43Z" fill="white"/>
<path d="M84.0001 13.43H83.0001V10.79C83.0001 9.92002 82.7001 9.48002 82.1101 9.48002C81.9796 9.4761 81.85 9.50304 81.7318 9.55865C81.6136 9.61425 81.5103 9.69695 81.4301 9.80002C81.2572 10.0152 81.1652 10.2841 81.1701 10.56V13.42H80.1701V10.65C80.1838 10.351 80.1071 10.0548 79.9501 9.80002C79.8799 9.69623 79.7841 9.61227 79.672 9.55623C79.5599 9.50018 79.4353 9.47394 79.3101 9.48002C79.1739 9.47801 79.0392 9.50875 78.9174 9.56966C78.7956 9.63057 78.6902 9.71986 78.6101 9.83002C78.4322 10.0546 78.3369 10.3335 78.3401 10.62V13.43H77.3401V10.06C77.3401 9.64669 77.3401 9.19669 77.3401 8.71002H78.2401V9.43002C78.3811 9.17451 78.5906 8.96336 78.8449 8.82028C79.0993 8.6772 79.3885 8.60785 79.6801 8.62002C79.9637 8.60154 80.2455 8.67799 80.4808 8.83733C80.7162 8.99667 80.8919 9.22982 80.9801 9.50002C81.1175 9.26509 81.3054 9.06359 81.5301 8.91002C81.8228 8.70663 82.174 8.60476 82.5301 8.62002C82.7173 8.61956 82.9026 8.65748 83.0746 8.73144C83.2466 8.8054 83.4016 8.91382 83.5301 9.05002C83.8951 9.49597 84.0742 10.0654 84.0301 10.64V13.44L84.0001 13.43Z" fill="white"/>
</g>
<defs>
<clipPath id="clip0_43_2099">
<rect width="135" height="40" fill="white"/>
</clipPath>
</defs>
</svg>
