<svg xmlns="http://www.w3.org/2000/svg" width="392.041" height="564.568" viewBox="0 0 392.041 564.568">
  <g id="Gruppe_411" data-name="Gruppe 411" transform="translate(-11558.839 796.284)">
    <circle id="Ellipse_90" data-name="Ellipse 90" cx="76.33" cy="76.33" r="76.33" transform="translate(11666.786 -404.251) rotate(-135)" fill="#f7b232"/>
    <circle id="Ellipse_91" data-name="Ellipse 91" cx="76.33" cy="76.33" r="76.33" transform="translate(11842.933 -231.716) rotate(-135)" fill="#42a8e0"/>
    <circle id="Ellipse_92" data-name="Ellipse 92" cx="76.33" cy="76.33" r="76.33" transform="translate(11842.933 -580.389) rotate(-135)" fill="#b3b1c5"/>
    <path id="Vereinigungsmenge_41" data-name="Vereinigungsmenge 41" d="M225.8,508.891a82.28,82.28,0,0,1-32.968-126.426l-59.814-59.814A82.358,82.358,0,0,1,0,257.681a82.45,82.45,0,0,1,114.468-75.863,81.928,81.928,0,0,1,19.137,11.351l59.689-59.691A82.572,82.572,0,1,1,206.8,146.956l-59.718,59.718a82.236,82.236,0,0,1-.462,102.594l59.6,59.6A82.324,82.324,0,1,1,225.8,508.891ZM212.734,387.925a63.874,63.874,0,1,0,45.142-18.686A63.341,63.341,0,0,0,212.734,387.925ZM37.252,212.578a63.813,63.813,0,0,0,90.287,90.2,63.813,63.813,0,0,0-90.287-90.2ZM212.734,37.231a63.881,63.881,0,1,0,45.142-18.683A63.347,63.347,0,0,0,212.734,37.231Z" transform="translate(11584.862 -769.879)" fill="#29235c"/>
  </g>
</svg>
