<!-- sample rectangle -->
<svg xmlns="http://www.w3.org/2000/svg" width="2400" height="99" viewBox="0 0 2400 99" fill="none">
  <path d="M1012.46 6.5C1066.69 4 1136.05 6.9 1193.64 11.8C1250.27 16.7 1363.78 35.3 1434.82 47.5C1616.72 79.7 1755.66 92 1897.01 97.2C1953.64 99.3 2013.88 100.7 2145.15 94.7C2276.41 88.7 2400 69.1 2400 69.1V0H0V30.3C0 30.3 172.783 62.9 380.122 60.8C474.193 60.1 602.82 54.1 701.69 38.4C752.565 30.3 826.957 20.2 892.951 14.2C958.224 7.9 987.741 7.5 1012.46 6.5Z" fill="#212121"/>
</svg>