<svg xmlns="http://www.w3.org/2000/svg" xmlns:xlink="http://www.w3.org/1999/xlink" xmlns:lucid="lucid" width="1762.67" height="988"><g transform="translate(0 0)" lucid:page-tab-id="0_0"><path d="M159.68 429.1h-32a8 8 0 0 1-8-8V248a8 8 0 0 1 8-8h32z" stroke="#b2b2b2" stroke-width="2" fill="#a5a7aa"/><path d="M159.68 240h1472a8 8 0 0 1 8 8v173.1a8 8 0 0 1-8 8h-1472z" stroke="#b2b2b2" stroke-width="2" fill="none"/><use xlink:href="#a" transform="matrix(-1.8369701987210297e-16,-1,1,-1.8369701987210297e-16,119.68412497435955,429.10339045804614) translate(72.80555555555556 24)"/><path d="M159.68 880h-32a8 8 0 0 1-8-8V508a8 8 0 0 1 8-8h32z" stroke="#b2b2b2" stroke-width="2" fill="#a5a7aa"/><path d="M159.68 500h1472a8 8 0 0 1 8 8v364a8 8 0 0 1-8 8h-1472z" stroke="#b2b2b2" stroke-width="2" fill="none"/><use xlink:href="#b" transform="matrix(-1.8369701987210297e-16,-1,1,-1.8369701987210297e-16,119.6841249743594,880) translate(140.66666666666666 24)"/><use xlink:href="#c" transform="matrix(-1.8369701987210297e-16,-1,1,-1.8369701987210297e-16,159.6841249743594,880) translate(138.52777777777777 24)"/><use xlink:href="#d" transform="matrix(-1.8369701987210297e-16,-1,1,-1.8369701987210297e-16,159.6841249743594,880) translate(188.52777777777777 24)"/><path d="M239.68 335.17c0 16.57-13.43 30-30 30-16.56 0-30-13.43-30-30s13.44-30 30-30c16.57 0 30 13.43 30 30z" stroke="#333" fill="#d2d3d5"/><path d="M301 280.17a5 5 0 0 1 5-5h150a5 5 0 0 1 5 5v110a5 5 0 0 1-5 5H306a5 5 0 0 1-5-5z" stroke="#333" fill="#3278ca"/><use xlink:href="#e" transform="matrix(1,0,0,1,301.0079005390967,275.1712001566806) translate(15.708278356481452 51.65166666666667)"/><use xlink:href="#f" transform="matrix(1,0,0,1,301.0079005390967,275.1712001566806) translate(91.33124710648148 51.65166666666667)"/><use xlink:href="#g" transform="matrix(1,0,0,1,301.0079005390967,275.1712001566806) translate(34.8474247685185 72.87916666666668)"/><use xlink:href="#h" transform="matrix(1,0,0,1,301.0079005390967,275.1712001566806) translate(59.41629050925925 72.87916666666668)"/><path d="M1252.73 280.17a5 5 0 0 1 5-5h150a5 5 0 0 1 5 5v110a5 5 0 0 1-5 5h-150a5 5 0 0 1-5-5z" stroke="#333" fill="#3278ca"/><use xlink:href="#i" transform="matrix(1,0,0,1,1252.734273921782,275.1712001566806) translate(25.486686921296275 62.90166666666667)"/><use xlink:href="#j" transform="matrix(1,0,0,1,1252.734273921782,275.1712001566806) translate(54.969325810185175 62.90166666666667)"/><path d="M1530 590.95c0 16.57-13.42 30-30 30-16.56 0-30-13.43-30-30s13.44-30 30-30c16.58 0 30 13.43 30 30z" stroke="#333" stroke-width="5" fill="#d2d3d5"/><path d="M240.68 335.17h43.44" stroke="#333" fill="none"/><path d="M240.7 335.67h-.56l.05-.5-.03-.5h.53z" stroke="#333" stroke-width=".05" fill="#333"/><path d="M298.9 335.17l-14.28 4.64v-9.26z" stroke="#333" fill="#333"/><path d="M1530 335.17c0 16.57-13.42 30-30 30-16.56 0-30-13.43-30-30s13.44-30 30-30c16.58 0 30 13.43 30 30z" stroke="#333" stroke-width="5" fill="#d2d3d5"/><path d="M1521.26 335.17c0 11.74-9.52 21.25-21.25 21.25s-21.24-9.5-21.24-21.25c0-11.74 9.5-21.25 21.25-21.25 11.74 0 21.26 9.5 21.26 21.25z" fill="#333"/><path d="M755.24 590.98l37.5-37.5 37.5 37.5-37.5 37.5z" stroke="#333" fill="#fff"/><path d="M777.74 575.98l30 30m-30 0l30-30" stroke="#333" fill="none"/><path d="M972.73 535.98a5 5 0 0 1 5-5h150a5 5 0 0 1 5 5v110a5 5 0 0 1-5 5h-150a5 5 0 0 1-5-5z" stroke="#333" fill="#75b2ff"/><use xlink:href="#k" transform="matrix(1,0,0,1,972.734273921782,530.9749999999999) translate(26.002633101851835 62.90166666666667)"/><use xlink:href="#l" transform="matrix(1,0,0,1,972.734273921782,530.9749999999999) translate(68.26108217592594 62.90166666666667)"/><path d="M452.83 75a8 8 0 0 1 8-8h836.75a8 8 0 0 1 8 8v25.16a8 8 0 0 1-8 8H460.83a8 8 0 0 1-8-8z" stroke="#000" stroke-opacity="0" stroke-width="2" fill="#fff" fill-opacity="0"/><use xlink:href="#m" transform="matrix(1,0,0,1,456.83067775970267,70.99999999994924) translate(250.7766666666667 25.782777777777778)"/><use xlink:href="#n" transform="matrix(1,0,0,1,456.83067775970267,70.99999999994924) translate(339.4951851851852 25.782777777777778)"/><use xlink:href="#o" transform="matrix(1,0,0,1,456.83067775970267,70.99999999994924) translate(399.0779012345679 25.782777777777778)"/><path d="M667.78 106.8h428.57M667.8 106.8h-1.02M1096.32 106.8h1.03" stroke="#a9afb8" stroke-width="2" fill="none"/><path d="M301 535.98a5 5 0 0 1 5-5h150a5 5 0 0 1 5 5v110a5 5 0 0 1-5 5H306a5 5 0 0 1-5-5z" stroke="#333" fill="#75b2ff"/><use xlink:href="#p" transform="matrix(1,0,0,1,301.0079005390967,530.9749999999999) translate(5.535864197530865 62.97222222222222)"/><use xlink:href="#q" transform="matrix(1,0,0,1,301.0079005390967,530.9749999999999) translate(63.70870370370371 62.97222222222222)"/><use xlink:href="#r" transform="matrix(1,0,0,1,301.0079005390967,530.9749999999999) translate(88.40006172839507 62.97222222222222)"/><path d="M381 409.67v4.97m0 4.98v9.94m0 4.97v9.95m0 4.97v9.94m0 4.97v9.94m0 4.98v9.95m0 4.97v9.95m0 4.97v4.97" stroke="#333" fill="none"/><path d="M381 396.38l7.08 7.07-7.07 7.93-7.06-7.93zM381 528.86l-4.63-14.27h9.27z" stroke="#333" fill="#fff"/><path d="M462 590.98h32.55l.02-.02h16.67" stroke="#333" fill="none"/><path d="M462.02 591.48h-.5v-1h.5z" stroke="#333" stroke-width=".05" fill="#333"/><path d="M526 590.95l-14.26 4.63v-9.27z" stroke="#333" fill="#333"/><path d="M831.45 590.98h124.39" stroke="#333" fill="none"/><path d="M831.46 591.48h-1l.5-.5-.5-.5h1z" stroke="#333" stroke-width=".05" fill="#333"/><path d="M970.6 590.98l-14.25 4.63v-9.26z" stroke="#333" fill="#333"/><use xlink:href="#s" transform="matrix(1,0,0,1,827.0799529341277,565.6416666666387) translate(0.005000000000002558 14.222222222222223)"/><path d="M792.74 629.68V728a12 12 0 0 0 12 12h151.1" stroke="#333" fill="none"/><path d="M792.74 629.18l.5-.5v1.02h-1v-1.02z" stroke="#333" stroke-width=".05" fill="#333"/><path d="M970.62 740l-14.27 4.63v-9.26z" stroke="#333" fill="#333"/><use xlink:href="#t" transform="matrix(1,0,0,1,771.107528901529,748.6352549155963) translate(0.0049999999999954525 14.222222222222223)"/><use xlink:href="#r" transform="matrix(1,0,0,1,771.107528901529,748.6352549155963) translate(112.40006172839506 14.222222222222223)"/><path d="M972.73 685a5 5 0 0 1 5-5h150a5 5 0 0 1 5 5v110a5 5 0 0 1-5 5h-150a5 5 0 0 1-5-5z" stroke="#333" fill="#75b2ff"/><use xlink:href="#k" transform="matrix(1,0,0,1,972.734273921782,679.999999999972) translate(26.002633101851835 62.90166666666667)"/><use xlink:href="#l" transform="matrix(1,0,0,1,972.734273921782,679.999999999972) translate(68.26108217592594 62.90166666666667)"/><path d="M1133.73 590.98h102.12" stroke="#333" fill="none"/><path d="M1133.75 591.48h-.52v-1h.52z" stroke="#333" stroke-width=".05" fill="#333"/><path d="M1250.62 590.98l-14.27 4.63v-9.26z" stroke="#333" fill="#333"/><path d="M1252.73 535.98a5 5 0 0 1 5-5h150a5 5 0 0 1 5 5v110a5 5 0 0 1-5 5h-150a5 5 0 0 1-5-5z" stroke="#333" fill="#75b2ff"/><use xlink:href="#u" transform="matrix(1,0,0,1,1252.734273921782,530.9749999999999) translate(18.301296296296293 62.97222222222222)"/><use xlink:href="#v" transform="matrix(1,0,0,1,1252.734273921782,530.9749999999999) translate(61.758086419753084 62.97222222222222)"/><path d="M1413.73 335.17h39.9" stroke="#333" fill="none"/><path d="M1413.75 335.67h-.52v-1h.52z" stroke="#333" stroke-width=".05" fill="#333"/><path d="M1468.4 335.17l-14.28 4.64v-9.26z" stroke="#333" fill="#333"/><path d="M1332.73 516.48v-4.98m0-4.97v-9.94m0-5v-9.93m0-4.97v-9.95m0-4.97v-9.95m0-4.97v-9.94m0-4.98V422m0-4.97v-4.97" stroke="#333" fill="none"/><path d="M1332.73 529.77l-7.07-7.07 7.07-7.93 7.08 7.93zM1332.73 397.3l4.64 14.25h-9.27z" stroke="#333" fill="#fff"/><path d="M1413.73 590.98h27.88l.02-.02h12" stroke="#333" fill="none"/><path d="M1413.75 591.48h-.52v-1h.52z" stroke="#333" stroke-width=".05" fill="#333"/><path d="M1468.4 590.95l-14.28 4.63v-9.27z" stroke="#333" fill="#333"/><path d="M528.13 535.95a5 5 0 0 1 5-5h150a5 5 0 0 1 5 5v110a5 5 0 0 1-5 5h-150a5 5 0 0 1-5-5z" stroke="#333" fill="#75b2ff"/><g><use xlink:href="#w" transform="matrix(1,0,0,1,528.1250374999877,530.9481665014309) translate(13.116111111111104 62.97222222222222)"/><use xlink:href="#r" transform="matrix(1,0,0,1,528.1250374999877,530.9481665014309) translate(80.81981481481482 62.97222222222222)"/></g><path d="M689.13 590.95h32.44l.02.02h16.55" stroke="#333" fill="none"/><path d="M689.14 591.45h-.5v-1h.5z" stroke="#333" stroke-width=".05" fill="#333"/><path d="M752.92 590.98l-14.27 4.63v-9.26z" stroke="#333" fill="#333"/><path d="M608.13 516.45v-5.13m0-5.13v-10.27m0-5.13v-10.26m0-5.13v-10.25m0-5.13v-10.26m0-5.13v-10.25m0-5.13V419m0-5.14V403.6m0-5.13V388.2m0-5.12v-10.26m0-5.13v-10.27m0-5.13v-5.13l-.15-1.88-.44-1.84-.72-1.74-.33-.53m-4.4-4.4l-.53-.32-1.74-.72-1.83-.44-1.88-.15h-4.92m-4.93 0h-9.85m-4.93 0h-9.86m-4.93 0h-9.84m-4.93 0h-9.85m-4.92 0h-9.86m-4.92 0h-9.86m-4.92 0h-9.86m-4.92 0h-4.93" stroke="#333" fill="none"/><path d="M608.13 529.74l-7.08-7.07 7.08-7.93 7.07 7.93zM463.13 335.17l14.26-4.63v9.27z" stroke="#333" fill="#fff"/><path d="M1133.73 740h187a12 12 0 0 0 12-12v-60.14" stroke="#333" fill="none"/><path d="M1133.75 740.5h-.52v-1h.52z" stroke="#333" stroke-width=".05" fill="#333"/><path d="M1332.73 653.1l4.64 14.26h-9.27z" stroke="#333" fill="#333"/><defs><path fill="#fff" d="M76-105c-23 59 45 89 88 55 12-10 18-24 22-45l30-153h51C238-143 259 4 118 4 48 4 11-39 25-112l26-136h52" id="x"/><path fill="#fff" d="M144-137c-1-29-70-35-71-2 16 41 103 10 103 80C176 9 79 16 32-9 18-17 9-31 4-48l44-6c3 32 80 36 82 1-15-42-103-11-103-82 0-77 157-79 161-8" id="y"/><path fill="#fff" d="M114-194c63-2 87 48 72 110H63c-3 28 1 55 31 54 21-1 32-13 37-29l44 13C160-14 137 4 91 4 41 4 11-22 11-73c0-71 33-119 103-121zm30 77c14-47-50-61-67-22-3 6-6 13-8 22h75" id="z"/><path fill="#fff" d="M84-151c13-25 34-51 72-40l-8 41C67-170 71-64 56 0H6l36-190h47" id="A"/><g id="a"><use transform="matrix(0.05555555555555555,0,0,0.05555555555555555,0,0)" xlink:href="#x"/><use transform="matrix(0.05555555555555555,0,0,0.05555555555555555,14.388888888888888,0)" xlink:href="#y"/><use transform="matrix(0.05555555555555555,0,0,0.05555555555555555,25.5,0)" xlink:href="#z"/><use transform="matrix(0.05555555555555555,0,0,0.05555555555555555,36.611111111111114,0)" xlink:href="#A"/></g><path fill="#fff" d="M67-125c0 53 21 87 73 88 37 1 54-22 65-47l45 17C233-25 199 4 140 4 58 4 20-42 15-125 8-235 124-281 211-232c18 10 29 29 36 50l-46 12c-8-25-30-41-62-41-52 0-71 34-72 86" id="B"/><path fill="#fff" d="M110-194c64 0 96 36 96 99 0 64-35 99-97 99-61 0-95-36-95-99 0-62 34-99 96-99zm-1 164c35 0 45-28 45-65 0-40-10-65-43-65-34 0-45 26-45 65 0 36 10 65 43 65" id="C"/><path fill="#fff" d="M135-194c87-1 58 113 63 194h-50c-7-57 23-157-34-157-59 0-34 97-39 157H25l-1-190h47c2 12-1 28 3 38 12-26 28-41 61-42" id="D"/><path fill="#fff" d="M185-48c-13 30-37 53-82 52C43 2 14-33 14-96s30-98 90-98c62 0 83 45 84 108H66c0 31 8 55 39 56 18 0 30-7 34-22zm-45-69c5-46-57-63-70-21-2 6-4 13-4 21h74" id="E"/><path fill="#fff" d="M190-63c-7 42-38 67-86 67-59 0-84-38-90-98-12-110 154-137 174-36l-49 2c-2-19-15-32-35-32-30 0-35 28-38 64-6 74 65 87 74 30" id="F"/><path fill="#fff" d="M115-3C79 11 28 4 28-45v-112H4v-33h27l15-45h31v45h36v33H77v99c-1 23 16 31 38 25v30" id="G"/><path fill="#fff" d="M135-150c-39-12-60 13-60 57V0H25l-1-190h47c2 13-1 29 3 40 6-28 27-53 61-41v41" id="H"/><g id="b"><use transform="matrix(0.05555555555555555,0,0,0.05555555555555555,0,0)" xlink:href="#B"/><use transform="matrix(0.05555555555555555,0,0,0.05555555555555555,14.388888888888888,0)" xlink:href="#C"/><use transform="matrix(0.05555555555555555,0,0,0.05555555555555555,26.555555555555554,0)" xlink:href="#D"/><use transform="matrix(0.05555555555555555,0,0,0.05555555555555555,38.72222222222222,0)" xlink:href="#D"/><use transform="matrix(0.05555555555555555,0,0,0.05555555555555555,50.888888888888886,0)" xlink:href="#E"/><use transform="matrix(0.05555555555555555,0,0,0.05555555555555555,62,0)" xlink:href="#F"/><use transform="matrix(0.05555555555555555,0,0,0.05555555555555555,73.11111111111111,0)" xlink:href="#G"/><use transform="matrix(0.05555555555555555,0,0,0.05555555555555555,79.72222222222223,0)" xlink:href="#C"/><use transform="matrix(0.05555555555555555,0,0,0.05555555555555555,91.8888888888889,0)" xlink:href="#H"/></g><path fill="#fff" d="M30 0v-248h33v221h125V0H30" id="I"/><path fill="#fff" d="M100-194c62-1 85 37 85 99 1 63-27 99-86 99S16-35 15-95c0-66 28-99 85-99zM99-20c44 1 53-31 53-75 0-43-8-75-51-75s-53 32-53 75 10 74 51 75" id="J"/><path fill="#fff" d="M141-36C126-15 110 5 73 4 37 3 15-17 15-53c-1-64 63-63 125-63 3-35-9-54-41-54-24 1-41 7-42 31l-33-3c5-37 33-52 76-52 45 0 72 20 72 64v82c-1 20 7 32 28 27v20c-31 9-61-2-59-35zM48-53c0 20 12 33 32 33 41-3 63-29 60-74-43 2-92-5-92 41" id="K"/><path fill="#fff" d="M117-194c89-4 53 116 60 194h-32v-121c0-31-8-49-39-48C34-167 62-67 57 0H25l-1-190h30c1 10-1 24 2 32 11-22 29-35 61-36" id="L"/><g id="c"><use transform="matrix(0.05555555555555555,0,0,0.05555555555555555,0,0)" xlink:href="#I"/><use transform="matrix(0.05555555555555555,0,0,0.05555555555555555,11.11111111111111,0)" xlink:href="#J"/><use transform="matrix(0.05555555555555555,0,0,0.05555555555555555,22.22222222222222,0)" xlink:href="#K"/><use transform="matrix(0.05555555555555555,0,0,0.05555555555555555,33.33333333333333,0)" xlink:href="#L"/></g><path fill="#fff" d="M101-234c-31-9-42 10-38 44h38v23H63V0H32v-167H5v-23h27c-7-52 17-82 69-68v24" id="M"/><path fill="#fff" d="M24-231v-30h32v30H24zM24 0v-190h32V0H24" id="N"/><path fill="#fff" d="M96-169c-40 0-48 33-48 73s9 75 48 75c24 0 41-14 43-38l32 2c-6 37-31 61-74 61-59 0-76-41-82-99-10-93 101-131 147-64 4 7 5 14 7 22l-32 3c-4-21-16-35-41-35" id="O"/><path fill="#fff" d="M100-194c63 0 86 42 84 106H49c0 40 14 67 53 68 26 1 43-12 49-29l28 8c-11 28-37 45-77 45C44 4 14-33 15-96c1-61 26-98 85-98zm52 81c6-60-76-77-97-28-3 7-6 17-6 28h103" id="P"/><path fill="#fff" d="M114-163C36-179 61-72 57 0H25l-1-190h30c1 12-1 29 2 39 6-27 23-49 58-41v29" id="Q"/><g id="d"><use transform="matrix(0.05555555555555555,0,0,0.05555555555555555,0,0)" xlink:href="#J"/><use transform="matrix(0.05555555555555555,0,0,0.05555555555555555,11.11111111111111,0)" xlink:href="#M"/><use transform="matrix(0.05555555555555555,0,0,0.05555555555555555,16.27777777777778,0)" xlink:href="#M"/><use transform="matrix(0.05555555555555555,0,0,0.05555555555555555,21.833333333333336,0)" xlink:href="#N"/><use transform="matrix(0.05555555555555555,0,0,0.05555555555555555,26.222222222222225,0)" xlink:href="#O"/><use transform="matrix(0.05555555555555555,0,0,0.05555555555555555,36.22222222222223,0)" xlink:href="#P"/><use transform="matrix(0.05555555555555555,0,0,0.05555555555555555,47.33333333333334,0)" xlink:href="#Q"/></g><path fill="#fff" d="M249-183c0 48-29 72-75 77L221 0h-36l-43-103H65L45 0H11l48-248c83 2 190-17 190 65zm-34 3c0-55-74-39-127-41l-18 92c63-1 145 13 145-51" id="R"/><path fill="#fff" d="M111-194c62-3 86 47 72 106H45c-7 38 6 69 45 68 27-1 43-14 53-32l24 11C152-15 129 4 87 4 38 3 12-23 12-71c0-70 32-119 99-123zm44 81c14-66-71-72-95-28-4 8-8 17-11 28h106" id="S"/><path fill="#fff" d="M133-28C103 26-5 8 13-77c13-62 24-115 90-117 29-1 46 15 56 35 2-12 6-24 8-34h31L144 75h-31zM45-64c-2 27 10 43 35 43 54-1 69-50 69-103 0-29-15-46-42-46-53-1-58 58-62 106" id="T"/><path fill="#fff" d="M67 3c-93-2-31-127-26-193h32L48-50c-3 39 53 32 70 12 30-34 30-101 43-152h32L157 0h-30c1-10 6-24 4-33-14 20-29 37-64 36" id="U"/><path fill="#fff" d="M55-144c13 50 104 24 104 88C159 21 15 23 1-39l26-10c6 40 102 42 102-4-13-50-104-23-104-87 0-71 143-71 148-8l-29 4c-5-35-85-37-89 0" id="V"/><path fill="#fff" d="M51-54c-9 22 5 41 31 30L79-1C43 14 10-4 19-52l22-115H19l5-23h22l19-43h21l-9 43h35l-4 23H73" id="W"/><path fill="#fff" d="M44-154l7-36h35l-8 36H44zM14 0l7-36h35L49 0H14" id="X"/><g id="e"><use transform="matrix(0.0491377314814815,0,0,0.0491377314814815,0,0)" xlink:href="#R"/><use transform="matrix(0.0491377314814815,0,0,0.0491377314814815,12.726672453703708,0)" xlink:href="#S"/><use transform="matrix(0.0491377314814815,0,0,0.0491377314814815,22.554218750000008,0)" xlink:href="#T"/><use transform="matrix(0.0491377314814815,0,0,0.0491377314814815,32.38176504629631,0)" xlink:href="#U"/><use transform="matrix(0.0491377314814815,0,0,0.0491377314814815,42.209311342592606,0)" xlink:href="#S"/><use transform="matrix(0.0491377314814815,0,0,0.0491377314814815,52.036857638888904,0)" xlink:href="#V"/><use transform="matrix(0.0491377314814815,0,0,0.0491377314814815,60.88164930555556,0)" xlink:href="#W"/><use transform="matrix(0.0491377314814815,0,0,0.0491377314814815,65.79542245370372,0)" xlink:href="#X"/></g><path fill="#fff" d="M125-24c46 0 70-25 89-51l25 16C214-24 183 4 123 4 8 4-5-146 60-208c32-50 158-61 191-5 5 7 9 14 11 22l-32 10c-9-28-33-43-69-43-74 0-108 51-108 125 0 46 24 75 72 75" id="Y"/><path fill="#fff" d="M66-151c12-25 30-51 66-40l-6 26C45-176 58-65 38 0H6l36-190h30" id="Z"/><path fill="#fff" d="M165-48c-4 18 1 34 23 27l-3 20c-29 8-62 0-52-35h-2C116-14 99 4 63 4 30 4 8-16 8-49c0-68 71-67 138-67 10-26 0-56-31-54-26 1-42 9-47 31l-32-5c8-67 160-71 144 15-5 28-9 54-15 81zM42-50c3 52 80 24 89-6 7-12 7-24 11-38-47 1-103-4-100 44" id="aa"/><g id="f"><use transform="matrix(0.0491377314814815,0,0,0.0491377314814815,0,0)" xlink:href="#Y"/><use transform="matrix(0.0491377314814815,0,0,0.0491377314814815,12.726672453703708,0)" xlink:href="#Z"/><use transform="matrix(0.0491377314814815,0,0,0.0491377314814815,18.574062500000007,0)" xlink:href="#S"/><use transform="matrix(0.0491377314814815,0,0,0.0491377314814815,28.401608796296312,0)" xlink:href="#aa"/><use transform="matrix(0.0491377314814815,0,0,0.0491377314814815,38.229155092592606,0)" xlink:href="#W"/><use transform="matrix(0.0491377314814815,0,0,0.0491377314814815,43.14292824074076,0)" xlink:href="#S"/></g><path fill="#fff" d="M67-158c22-48 132-52 116 29L158 0h-32l25-140c3-38-53-32-70-12C52-117 51-52 38 0H6l36-190h30" id="ab"/><g id="g"><use transform="matrix(0.0491377314814815,0,0,0.0491377314814815,0,0)" xlink:href="#aa"/><use transform="matrix(0.0491377314814815,0,0,0.0491377314814815,9.8275462962963,0)" xlink:href="#ab"/></g><path fill="#fff" d="M187 0l-14-72H61L19 0h-37l149-248h38L221 0h-34zm-19-99l-22-123L76-99h92" id="ac"/><path fill="#fff" d="M50-231l6-30h32l-6 30H50zM6 0l37-190h31L37 0H6" id="ad"/><path fill="#fff" d="M68-162c25-46 127-43 121 31C183-60 169 1 98 4 69 5 53-11 43-31L36 0H5l52-261h31zm88 36c2-27-9-43-34-43-55 0-70 51-70 103 0 29 15 45 43 46 52 0 58-58 61-106" id="ae"/><g id="h"><use transform="matrix(0.0491377314814815,0,0,0.0491377314814815,0,0)" xlink:href="#ac"/><use transform="matrix(0.0491377314814815,0,0,0.0491377314814815,11.79305555555556,0)" xlink:href="#W"/><use transform="matrix(0.0491377314814815,0,0,0.0491377314814815,16.70682870370371,0)" xlink:href="#W"/><use transform="matrix(0.0491377314814815,0,0,0.0491377314814815,21.62060185185186,0)" xlink:href="#Z"/><use transform="matrix(0.0491377314814815,0,0,0.0491377314814815,27.467991898148156,0)" xlink:href="#ad"/><use transform="matrix(0.0491377314814815,0,0,0.0491377314814815,31.349872685185197,0)" xlink:href="#ae"/><use transform="matrix(0.0491377314814815,0,0,0.0491377314814815,41.177418981481495,0)" xlink:href="#U"/><use transform="matrix(0.0491377314814815,0,0,0.0491377314814815,51.00496527777779,0)" xlink:href="#W"/><use transform="matrix(0.0491377314814815,0,0,0.0491377314814815,55.918738425925945,0)" xlink:href="#S"/></g><path fill="#fff" d="M103-194c29 0 47 14 56 36 2-11 5-23 8-32h30L160-5C157 61 82 97 21 62 9 55 4 45 1 30l28-7c7 42 83 31 92-3 4-16 9-38 13-55-13 20-29 36-62 36-40 0-60-25-60-64 0-71 23-131 91-131zm4 24c-53 0-58 54-61 104-2 27 10 44 36 44 49 0 65-50 67-102 1-29-15-46-42-46" id="af"/><g id="i"><use transform="matrix(0.0491377314814815,0,0,0.0491377314814815,0,0)" xlink:href="#af"/><use transform="matrix(0.0491377314814815,0,0,0.0491377314814815,9.8275462962963,0)" xlink:href="#S"/><use transform="matrix(0.0491377314814815,0,0,0.0491377314814815,19.6550925925926,0)" xlink:href="#W"/></g><path fill="#fff" d="M67-162c32-53 139-36 121 50C175-51 163 2 97 4 68 4 52-11 42-31 38 6 28 39 22 75H-9l50-265h29c-1 10 0 20-3 28zm89 36c0-26-10-43-35-43-54 0-67 50-69 103-1 29 14 45 42 46 53 0 62-58 62-106" id="ag"/><path fill="#fff" d="M30-147c31-64 166-65 159 27C183-49 158 1 86 4 9 8 1-88 30-147zM88-20c53 0 68-48 68-100 0-31-11-51-44-50-52 1-68 46-68 97 0 32 13 53 44 53" id="ah"/><g id="j"><use transform="matrix(0.0491377314814815,0,0,0.0491377314814815,0,0)" xlink:href="#R"/><use transform="matrix(0.0491377314814815,0,0,0.0491377314814815,12.726672453703708,0)" xlink:href="#S"/><use transform="matrix(0.0491377314814815,0,0,0.0491377314814815,22.554218750000008,0)" xlink:href="#V"/><use transform="matrix(0.0491377314814815,0,0,0.0491377314814815,31.399010416666677,0)" xlink:href="#ag"/><use transform="matrix(0.0491377314814815,0,0,0.0491377314814815,41.226556712962974,0)" xlink:href="#ah"/><use transform="matrix(0.0491377314814815,0,0,0.0491377314814815,51.05410300925928,0)" xlink:href="#ab"/><use transform="matrix(0.0491377314814815,0,0,0.0491377314814815,60.88164930555556,0)" xlink:href="#V"/><use transform="matrix(0.0491377314814815,0,0,0.0491377314814815,69.72644097222224,0)" xlink:href="#S"/></g><path fill="#333" d="M135-143c-3-34-86-38-87 0 15 53 115 12 119 90S17 21 10-45l28-5c4 36 97 45 98 0-10-56-113-15-118-90-4-57 82-63 122-42 12 7 21 19 24 35" id="ai"/><path fill="#333" d="M141-36C126-15 110 5 73 4 37 3 15-17 15-53c-1-64 63-63 125-63 3-35-9-54-41-54-24 1-41 7-42 31l-33-3c5-37 33-52 76-52 45 0 72 20 72 64v82c-1 20 7 32 28 27v20c-31 9-61-2-59-35zM48-53c0 20 12 33 32 33 41-3 63-29 60-74-43 2-92-5-92 41" id="aj"/><path fill="#333" d="M108 0H70L1-190h34L89-25l56-165h34" id="ak"/><path fill="#333" d="M100-194c63 0 86 42 84 106H49c0 40 14 67 53 68 26 1 43-12 49-29l28 8c-11 28-37 45-77 45C44 4 14-33 15-96c1-61 26-98 85-98zm52 81c6-60-76-77-97-28-3 7-6 17-6 28h103" id="al"/><g id="k"><use transform="matrix(0.0491377314814815,0,0,0.0491377314814815,0,0)" xlink:href="#ai"/><use transform="matrix(0.0491377314814815,0,0,0.0491377314814815,8.84479166666667,0)" xlink:href="#aj"/><use transform="matrix(0.0491377314814815,0,0,0.0491377314814815,18.67233796296297,0)" xlink:href="#ak"/><use transform="matrix(0.0491377314814815,0,0,0.0491377314814815,27.51712962962964,0)" xlink:href="#al"/></g><path fill="#333" d="M205 0l-28-72H64L36 0H1l101-248h38L239 0h-34zm-38-99l-47-123c-12 45-31 82-46 123h93" id="am"/><path fill="#333" d="M59-47c-2 24 18 29 38 22v24C64 9 27 4 27-40v-127H5v-23h24l9-43h21v43h35v23H59v120" id="an"/><path fill="#333" d="M114-163C36-179 61-72 57 0H25l-1-190h30c1 12-1 29 2 39 6-27 23-49 58-41v29" id="ao"/><path fill="#333" d="M24-231v-30h32v30H24zM24 0v-190h32V0H24" id="ap"/><path fill="#333" d="M115-194c53 0 69 39 70 98 0 66-23 100-70 100C84 3 66-7 56-30L54 0H23l1-261h32v101c10-23 28-34 59-34zm-8 174c40 0 45-34 45-75 0-40-5-75-45-74-42 0-51 32-51 76 0 43 10 73 51 73" id="aq"/><path fill="#333" d="M84 4C-5 8 30-112 23-190h32v120c0 31 7 50 39 49 72-2 45-101 50-169h31l1 190h-30c-1-10 1-25-2-33-11 22-28 36-60 37" id="ar"/><g id="l"><use transform="matrix(0.0491377314814815,0,0,0.0491377314814815,0,0)" xlink:href="#am"/><use transform="matrix(0.0491377314814815,0,0,0.0491377314814815,11.79305555555556,0)" xlink:href="#an"/><use transform="matrix(0.0491377314814815,0,0,0.0491377314814815,16.70682870370371,0)" xlink:href="#an"/><use transform="matrix(0.0491377314814815,0,0,0.0491377314814815,21.62060185185186,0)" xlink:href="#ao"/><use transform="matrix(0.0491377314814815,0,0,0.0491377314814815,27.467991898148156,0)" xlink:href="#ap"/><use transform="matrix(0.0491377314814815,0,0,0.0491377314814815,31.349872685185197,0)" xlink:href="#aq"/><use transform="matrix(0.0491377314814815,0,0,0.0491377314814815,41.177418981481495,0)" xlink:href="#ar"/><use transform="matrix(0.0491377314814815,0,0,0.0491377314814815,51.00496527777779,0)" xlink:href="#an"/><use transform="matrix(0.0491377314814815,0,0,0.0491377314814815,55.918738425925945,0)" xlink:href="#al"/></g><path fill="#a9afb8" d="M67-125c0 53 21 87 73 88 37 1 54-22 65-47l45 17C233-25 199 4 140 4 58 4 20-42 15-125 8-235 124-281 211-232c18 10 29 29 36 50l-46 12c-8-25-30-41-62-41-52 0-71 34-72 86" id="as"/><path fill="#a9afb8" d="M135-150c-39-12-60 13-60 57V0H25l-1-190h47c2 13-1 29 3 40 6-28 27-53 61-41v41" id="at"/><path fill="#a9afb8" d="M185-48c-13 30-37 53-82 52C43 2 14-33 14-96s30-98 90-98c62 0 83 45 84 108H66c0 31 8 55 39 56 18 0 30-7 34-22zm-45-69c5-46-57-63-70-21-2 6-4 13-4 21h74" id="au"/><path fill="#a9afb8" d="M133-34C117-15 103 5 69 4 32 3 11-16 11-54c-1-60 55-63 116-61 1-26-3-47-28-47-18 1-26 9-28 27l-52-2c7-38 36-58 82-57s74 22 75 68l1 82c-1 14 12 18 25 15v27c-30 8-71 5-69-32zm-48 3c29 0 43-24 42-57-32 0-66-3-65 30 0 17 8 27 23 27" id="av"/><path fill="#a9afb8" d="M115-3C79 11 28 4 28-45v-112H4v-33h27l15-45h31v45h36v33H77v99c-1 23 16 31 38 25v30" id="aw"/><g id="m"><use transform="matrix(0.0728395061728395,0,0,0.0728395061728395,0,0)" xlink:href="#as"/><use transform="matrix(0.0728395061728395,0,0,0.0728395061728395,18.86543209876543,0)" xlink:href="#at"/><use transform="matrix(0.0728395061728395,0,0,0.0728395061728395,29.062962962962963,0)" xlink:href="#au"/><use transform="matrix(0.0728395061728395,0,0,0.0728395061728395,43.63086419753086,0)" xlink:href="#av"/><use transform="matrix(0.0728395061728395,0,0,0.0728395061728395,58.19876543209875,0)" xlink:href="#aw"/><use transform="matrix(0.0728395061728395,0,0,0.0728395061728395,66.86666666666666,0)" xlink:href="#au"/></g><path fill="#a9afb8" d="M110-194c64 0 96 36 96 99 0 64-35 99-97 99-61 0-95-36-95-99 0-62 34-99 96-99zm-1 164c35 0 45-28 45-65 0-40-10-65-43-65-34 0-45 26-45 65 0 36 10 65 43 65" id="ax"/><path fill="#a9afb8" d="M231 0h-52l-39-155L100 0H48L-1-190h46L77-45c9-52 24-97 36-145h53l37 145 32-145h46" id="ay"/><path fill="#a9afb8" d="M135-194c87-1 58 113 63 194h-50c-7-57 23-157-34-157-59 0-34 97-39 157H25l-1-190h47c2 12-1 28 3 38 12-26 28-41 61-42" id="az"/><g id="n"><use transform="matrix(0.0728395061728395,0,0,0.0728395061728395,0,0)" xlink:href="#ax"/><use transform="matrix(0.0728395061728395,0,0,0.0728395061728395,15.95185185185185,0)" xlink:href="#ay"/><use transform="matrix(0.0728395061728395,0,0,0.0728395061728395,36.34691358024691,0)" xlink:href="#az"/></g><path fill="#a9afb8" d="M24 0v-248h52V0H24" id="aA"/><path fill="#a9afb8" d="M88-194c31-1 46 15 58 34l-1-101h50l1 261h-48c-2-10 0-23-3-31C134-8 116 4 84 4 32 4 16-41 15-95c0-56 19-97 73-99zm17 164c33 0 40-30 41-66 1-37-9-64-41-64s-38 30-39 65c0 43 13 65 39 65" id="aB"/><path fill="#a9afb8" d="M25-224v-37h50v37H25zM25 0v-190h50V0H25" id="aC"/><path fill="#a9afb8" d="M123 10C108 53 80 86 19 72V37c35 8 53-11 59-39L3-190h52l48 148c12-52 28-100 44-148h51" id="aD"/><path fill="#a9afb8" d="M199 0l-22-63H83L61 0H9l90-248h61L250 0h-51zm-33-102l-36-108c-10 38-24 72-36 108h72" id="aE"/><path fill="#a9afb8" d="M135-194c52 0 70 43 70 98 0 56-19 99-73 100-30 1-46-15-58-35L72 0H24l1-261h50v104c11-23 29-37 60-37zM114-30c31 0 40-27 40-66 0-37-7-63-39-63s-41 28-41 65c0 36 8 64 40 64" id="aF"/><path fill="#a9afb8" d="M85 4C-2 5 27-109 22-190h50c7 57-23 150 33 157 60-5 35-97 40-157h50l1 190h-47c-2-12 1-28-3-38-12 25-28 42-61 42" id="aG"/><g id="o"><use transform="matrix(0.0728395061728395,0,0,0.0728395061728395,0,0)" xlink:href="#aA"/><use transform="matrix(0.0728395061728395,0,0,0.0728395061728395,7.28395061728395,0)" xlink:href="#aB"/><use transform="matrix(0.0728395061728395,0,0,0.0728395061728395,23.235802469135802,0)" xlink:href="#au"/><use transform="matrix(0.0728395061728395,0,0,0.0728395061728395,37.803703703703704,0)" xlink:href="#az"/><use transform="matrix(0.0728395061728395,0,0,0.0728395061728395,53.75555555555555,0)" xlink:href="#aw"/><use transform="matrix(0.0728395061728395,0,0,0.0728395061728395,62.42345679012345,0)" xlink:href="#aC"/><use transform="matrix(0.0728395061728395,0,0,0.0728395061728395,69.7074074074074,0)" xlink:href="#aw"/><use transform="matrix(0.0728395061728395,0,0,0.0728395061728395,78.37530864197531,0)" xlink:href="#aD"/><use transform="matrix(0.0728395061728395,0,0,0.0728395061728395,92.94320987654321,0)" xlink:href="#aE"/><use transform="matrix(0.0728395061728395,0,0,0.0728395061728395,111.80864197530865,0)" xlink:href="#aw"/><use transform="matrix(0.0728395061728395,0,0,0.0728395061728395,120.47654320987654,0)" xlink:href="#aw"/><use transform="matrix(0.0728395061728395,0,0,0.0728395061728395,129.14444444444445,0)" xlink:href="#at"/><use transform="matrix(0.0728395061728395,0,0,0.0728395061728395,139.34197530864196,0)" xlink:href="#aC"/><use transform="matrix(0.0728395061728395,0,0,0.0728395061728395,146.6259259259259,0)" xlink:href="#aF"/><use transform="matrix(0.0728395061728395,0,0,0.0728395061728395,162.57777777777775,0)" xlink:href="#aG"/><use transform="matrix(0.0728395061728395,0,0,0.0728395061728395,178.5296296296296,0)" xlink:href="#aw"/><use transform="matrix(0.0728395061728395,0,0,0.0728395061728395,187.1975308641975,0)" xlink:href="#au"/></g><path fill="#333" d="M212-179c-10-28-35-45-73-45-59 0-87 40-87 99 0 60 29 101 89 101 43 0 62-24 78-52l27 14C228-24 195 4 139 4 59 4 22-46 18-125c-6-104 99-153 187-111 19 9 31 26 39 46" id="aH"/><g id="p"><use transform="matrix(0.04938271604938272,0,0,0.04938271604938272,0,0)" xlink:href="#aH"/><use transform="matrix(0.04938271604938272,0,0,0.04938271604938272,12.790123456790125,0)" xlink:href="#ao"/><use transform="matrix(0.04938271604938272,0,0,0.04938271604938272,18.666666666666668,0)" xlink:href="#al"/><use transform="matrix(0.04938271604938272,0,0,0.04938271604938272,28.543209876543212,0)" xlink:href="#aj"/><use transform="matrix(0.04938271604938272,0,0,0.04938271604938272,38.41975308641976,0)" xlink:href="#an"/><use transform="matrix(0.04938271604938272,0,0,0.04938271604938272,43.35802469135803,0)" xlink:href="#al"/></g><path fill="#333" d="M117-194c89-4 53 116 60 194h-32v-121c0-31-8-49-39-48C34-167 62-67 57 0H25l-1-190h30c1 10-1 24 2 32 11-22 29-35 61-36" id="aI"/><g id="q"><use transform="matrix(0.04938271604938272,0,0,0.04938271604938272,0,0)" xlink:href="#aj"/><use transform="matrix(0.04938271604938272,0,0,0.04938271604938272,9.876543209876544,0)" xlink:href="#aI"/></g><g id="r"><use transform="matrix(0.04938271604938272,0,0,0.04938271604938272,0,0)" xlink:href="#am"/><use transform="matrix(0.04938271604938272,0,0,0.04938271604938272,11.851851851851853,0)" xlink:href="#an"/><use transform="matrix(0.04938271604938272,0,0,0.04938271604938272,16.790123456790127,0)" xlink:href="#an"/><use transform="matrix(0.04938271604938272,0,0,0.04938271604938272,21.7283950617284,0)" xlink:href="#ao"/><use transform="matrix(0.04938271604938272,0,0,0.04938271604938272,27.604938271604947,0)" xlink:href="#ap"/><use transform="matrix(0.04938271604938272,0,0,0.04938271604938272,31.506172839506174,0)" xlink:href="#aq"/><use transform="matrix(0.04938271604938272,0,0,0.04938271604938272,41.38271604938272,0)" xlink:href="#ar"/><use transform="matrix(0.04938271604938272,0,0,0.04938271604938272,51.25925925925927,0)" xlink:href="#an"/><use transform="matrix(0.04938271604938272,0,0,0.04938271604938272,56.19753086419754,0)" xlink:href="#al"/></g><path fill="#333" d="M33 0v-248h34V0H33" id="aJ"/><path fill="#333" d="M85-194c31 0 48 13 60 33l-1-100h32l1 261h-30c-2-10 0-23-3-31C134-8 116 4 85 4 32 4 16-35 15-94c0-66 23-100 70-100zm9 24c-40 0-46 34-46 75 0 40 6 74 45 74 42 0 51-32 51-76 0-42-9-74-50-73" id="aK"/><path fill="#333" d="M179-190L93 31C79 59 56 82 12 73V49c39 6 53-20 64-50L1-190h34L92-34l54-156h33" id="aL"/><g id="s"><use transform="matrix(0.04938271604938272,0,0,0.04938271604938272,0,0)" xlink:href="#aJ"/><use transform="matrix(0.04938271604938272,0,0,0.04938271604938272,4.938271604938272,0)" xlink:href="#aK"/><use transform="matrix(0.04938271604938272,0,0,0.04938271604938272,14.814814814814817,0)" xlink:href="#al"/><use transform="matrix(0.04938271604938272,0,0,0.04938271604938272,24.69135802469136,0)" xlink:href="#aI"/><use transform="matrix(0.04938271604938272,0,0,0.04938271604938272,34.567901234567906,0)" xlink:href="#an"/><use transform="matrix(0.04938271604938272,0,0,0.04938271604938272,39.50617283950618,0)" xlink:href="#ap"/><use transform="matrix(0.04938271604938272,0,0,0.04938271604938272,43.40740740740741,0)" xlink:href="#an"/><use transform="matrix(0.04938271604938272,0,0,0.04938271604938272,48.345679012345684,0)" xlink:href="#aL"/><use transform="matrix(0.04938271604938272,0,0,0.04938271604938272,57.23456790123457,0)" xlink:href="#am"/><use transform="matrix(0.04938271604938272,0,0,0.04938271604938272,69.08641975308642,0)" xlink:href="#an"/><use transform="matrix(0.04938271604938272,0,0,0.04938271604938272,74.02469135802468,0)" xlink:href="#an"/><use transform="matrix(0.04938271604938272,0,0,0.04938271604938272,78.96296296296296,0)" xlink:href="#ao"/><use transform="matrix(0.04938271604938272,0,0,0.04938271604938272,84.8395061728395,0)" xlink:href="#ap"/><use transform="matrix(0.04938271604938272,0,0,0.04938271604938272,88.74074074074075,0)" xlink:href="#aq"/><use transform="matrix(0.04938271604938272,0,0,0.04938271604938272,98.61728395061729,0)" xlink:href="#ar"/><use transform="matrix(0.04938271604938272,0,0,0.04938271604938272,108.49382716049384,0)" xlink:href="#an"/><use transform="matrix(0.04938271604938272,0,0,0.04938271604938272,113.4320987654321,0)" xlink:href="#al"/></g><path fill="#333" d="M233-177c-1 41-23 64-60 70L243 0h-38l-65-103H63V0H30v-248c88 3 205-21 203 71zM63-129c60-2 137 13 137-47 0-61-80-42-137-45v92" id="aM"/><path fill="#333" d="M24 0v-261h32V0H24" id="aN"/><path fill="#333" d="M100-194c62-1 85 37 85 99 1 63-27 99-86 99S16-35 15-95c0-66 28-99 85-99zM99-20c44 1 53-31 53-75 0-43-8-75-51-75s-53 32-53 75 10 74 51 75" id="aO"/><path fill="#333" d="M106-169C34-169 62-67 57 0H25v-261h32l-1 103c12-21 28-36 61-36 89 0 53 116 60 194h-32v-121c2-32-8-49-39-48" id="aP"/><path fill="#333" d="M115-194c55 1 70 41 70 98S169 2 115 4C84 4 66-9 55-30l1 105H24l-1-265h31l2 30c10-21 28-34 59-34zm-8 174c40 0 45-34 45-75s-6-73-45-74c-42 0-51 32-51 76 0 43 10 73 51 73" id="aQ"/><g id="t"><use transform="matrix(0.04938271604938272,0,0,0.04938271604938272,0,0)" xlink:href="#aM"/><use transform="matrix(0.04938271604938272,0,0,0.04938271604938272,12.790123456790125,0)" xlink:href="#al"/><use transform="matrix(0.04938271604938272,0,0,0.04938271604938272,22.66666666666667,0)" xlink:href="#aN"/><use transform="matrix(0.04938271604938272,0,0,0.04938271604938272,26.567901234567902,0)" xlink:href="#aj"/><use transform="matrix(0.04938271604938272,0,0,0.04938271604938272,36.44444444444445,0)" xlink:href="#an"/><use transform="matrix(0.04938271604938272,0,0,0.04938271604938272,41.38271604938272,0)" xlink:href="#ap"/><use transform="matrix(0.04938271604938272,0,0,0.04938271604938272,45.283950617283956,0)" xlink:href="#aO"/><use transform="matrix(0.04938271604938272,0,0,0.04938271604938272,55.1604938271605,0)" xlink:href="#aI"/><use transform="matrix(0.04938271604938272,0,0,0.04938271604938272,65.03703703703704,0)" xlink:href="#aI"/><use transform="matrix(0.04938271604938272,0,0,0.04938271604938272,74.91358024691358,0)" xlink:href="#ai"/><use transform="matrix(0.04938271604938272,0,0,0.04938271604938272,83.80246913580247,0)" xlink:href="#aP"/><use transform="matrix(0.04938271604938272,0,0,0.04938271604938272,93.67901234567901,0)" xlink:href="#ap"/><use transform="matrix(0.04938271604938272,0,0,0.04938271604938272,97.58024691358025,0)" xlink:href="#aQ"/></g><g id="u"><use transform="matrix(0.04938271604938272,0,0,0.04938271604938272,0,0)" xlink:href="#ai"/><use transform="matrix(0.04938271604938272,0,0,0.04938271604938272,8.88888888888889,0)" xlink:href="#al"/><use transform="matrix(0.04938271604938272,0,0,0.04938271604938272,18.765432098765434,0)" xlink:href="#aI"/><use transform="matrix(0.04938271604938272,0,0,0.04938271604938272,28.641975308641978,0)" xlink:href="#aK"/></g><g id="v"><use transform="matrix(0.04938271604938272,0,0,0.04938271604938272,0,0)" xlink:href="#aM"/><use transform="matrix(0.04938271604938272,0,0,0.04938271604938272,12.790123456790125,0)" xlink:href="#al"/><use transform="matrix(0.04938271604938272,0,0,0.04938271604938272,22.66666666666667,0)" xlink:href="#ai"/><use transform="matrix(0.04938271604938272,0,0,0.04938271604938272,31.555555555555557,0)" xlink:href="#aQ"/><use transform="matrix(0.04938271604938272,0,0,0.04938271604938272,41.4320987654321,0)" xlink:href="#aO"/><use transform="matrix(0.04938271604938272,0,0,0.04938271604938272,51.308641975308646,0)" xlink:href="#aI"/><use transform="matrix(0.04938271604938272,0,0,0.04938271604938272,61.18518518518519,0)" xlink:href="#ai"/><use transform="matrix(0.04938271604938272,0,0,0.04938271604938272,70.07407407407408,0)" xlink:href="#al"/></g><path fill="#333" d="M137 0h-34L2-248h35l83 218 83-218h36" id="aR"/><g id="w"><use transform="matrix(0.04938271604938272,0,0,0.04938271604938272,0,0)" xlink:href="#aR"/><use transform="matrix(0.04938271604938272,0,0,0.04938271604938272,10.518518518518519,0)" xlink:href="#aj"/><use transform="matrix(0.04938271604938272,0,0,0.04938271604938272,20.395061728395063,0)" xlink:href="#aN"/><use transform="matrix(0.04938271604938272,0,0,0.04938271604938272,24.296296296296298,0)" xlink:href="#ap"/><use transform="matrix(0.04938271604938272,0,0,0.04938271604938272,28.19753086419753,0)" xlink:href="#aK"/><use transform="matrix(0.04938271604938272,0,0,0.04938271604938272,38.074074074074076,0)" xlink:href="#aj"/><use transform="matrix(0.04938271604938272,0,0,0.04938271604938272,47.95061728395062,0)" xlink:href="#an"/><use transform="matrix(0.04938271604938272,0,0,0.04938271604938272,52.88888888888889,0)" xlink:href="#al"/></g></defs></g></svg>