<svg xmlns="http://www.w3.org/2000/svg" xmlns:xlink="http://www.w3.org/1999/xlink" xmlns:lucid="lucid" width="1920.87" height="721"><g transform="translate(-479.12508327820115 -239.49999999361356)" lucid:page-tab-id="0_0"><path d="M0-1500h2500v2500H0z" fill="#fff"/><path d="M1279.9 246a6 6 0 0 1 6-6h307.6a6 6 0 0 1 6 6v248a6 6 0 0 1-6 6h-307.6a6 6 0 0 1-6-6z" stroke="#3a414a" fill="#e3fae3"/><path d="M1279.5 266a6 6 0 0 1 6-6h308a6 6 0 0 1 6 6v48a6 6 0 0 1-6 6h-308a6 6 0 0 1-6-6z" stroke="#000" stroke-opacity="0" fill-opacity="0"/><use xlink:href="#a" transform="matrix(1,0,0,1,1284.5000137600812,265) translate(99.62962962962962 30.27777777777778)"/><path d="M479.63 726a6 6 0 0 1 6-6h308.25a6 6 0 0 1 6 6v228a6 6 0 0 1-6 6H485.63a6 6 0 0 1-6-6z" stroke="#3a414a" fill="#e3fae3"/><path d="M479.88 746a6 6 0 0 1 6-6h308a6 6 0 0 1 6 6v48a6 6 0 0 1-6 6h-308a6 6 0 0 1-6-6z" stroke="#000" stroke-opacity="0" fill-opacity="0"/><use xlink:href="#b" transform="matrix(1,0,0,1,484.8750454213198,745) translate(102.03703703703704 30.27777777777778)"/><path d="M1700 786a6 6 0 0 1 6-6h169a6 6 0 0 1 6 6v28a6 6 0 0 1-6 6h-169a6 6 0 0 1-6-6z" stroke="#000" stroke-opacity="0" fill="#fff" fill-opacity="0"/><use xlink:href="#c" transform="matrix(1,0,0,1,1705,785) translate(13.488281250000014 24.062499999999996)"/><use xlink:href="#d" transform="matrix(1,0,0,1,1705,785) translate(93.50130208333333 24.062499999999996)"/><path d="M479.88 246a6 6 0 0 1 6-6h308a6 6 0 0 1 6 6v248a6 6 0 0 1-6 6h-308a6 6 0 0 1-6-6z" stroke="#3a414a" fill="#e3fae3"/><path d="M2079.5 246a6 6 0 0 1 6-6h308a6 6 0 0 1 6 6v248a6 6 0 0 1-6 6h-308a6 6 0 0 1-6-6z" stroke="#3a414a" fill="#fcfcca"/><path d="M999.76 316a6 6 0 0 1 6-6h68a6 6 0 0 1 6 6v48a6 6 0 0 1-6 6h-68a6 6 0 0 1-6-6z" stroke="#3a414a" fill="#fe7070"/><use xlink:href="#e" transform="matrix(1,0,0,1,1011.7584622616137,322) translate(-0.39506172839505993 22.444444444444443)"/><path d="M479.63 266a6 6 0 0 1 6-6h308a6 6 0 0 1 6 6v48a6 6 0 0 1-6 6h-308a6 6 0 0 1-6-6z" stroke="#000" stroke-opacity="0" fill-opacity="0"/><use xlink:href="#b" transform="matrix(1,0,0,1,484.62508328681747,265) translate(102.03703703703704 30.27777777777778)"/><path d="M2079.63 266a6 6 0 0 1 6-6h308a6 6 0 0 1 6 6v48a6 6 0 0 1-6 6h-308a6 6 0 0 1-6-6z" stroke="#000" stroke-opacity="0" fill-opacity="0"/><use xlink:href="#f" transform="matrix(1,0,0,1,2084.6250310672503,265) translate(68.67283950617285 30.27777777777778)"/><use xlink:href="#g" transform="matrix(1,0,0,1,2084.6250310672503,265) translate(162.37654320987656 30.27777777777778)"/><path d="M1359.5 346a6 6 0 0 1 6-6h148a6 6 0 0 1 6 6v88a6 6 0 0 1-6 6h-148a6 6 0 0 1-6-6z" stroke="#3a414a" fill="#ffdda6"/><use xlink:href="#h" transform="matrix(1,0,0,1,1371.5000137600812,352) translate(35.53086419753087 17.77777777777778)"/><use xlink:href="#i" transform="matrix(1,0,0,1,1371.5000137600812,352) translate(21.79629629629629 44.44444444444444)"/><use xlink:href="#j" transform="matrix(1,0,0,1,1371.5000137600812,352) translate(31.641975308641975 71.11111111111111)"/><path d="M804.37 454.24a6 6 0 0 1 0-8.48l21.5-21.52a2.48 2.48 0 0 1 4.25 1.76v3a6 6 0 0 0 6 6H1244a6 6 0 0 0 6-6v-3a2.48 2.48 0 0 1 4.24-1.76l21.52 21.52a6 6 0 0 1 0 8.48l-21.52 21.52A2.48 2.48 0 0 1 1250 474v-3a6 6 0 0 0-6-6H836.12a6 6 0 0 0-6 6v3a2.48 2.48 0 0 1-4.24 1.76z" stroke="#3a414a" fill="#e3fae3"/><path d="M919.88 436a6 6 0 0 1 6-6h228a6 6 0 0 1 6 6v28a6 6 0 0 1-6 6h-228a6 6 0 0 1-6-6z" stroke="#000" stroke-opacity="0" fill-opacity="0"/><use xlink:href="#k" transform="matrix(1,0,0,1,924.8750189327488,435) translate(50.8641975308642 19.71527777777778)"/><use xlink:href="#j" transform="matrix(1,0,0,1,924.8750189327488,435) translate(106.41975308641975 19.71527777777778)"/><path d="M1760.5 346a6 6 0 0 1 6-6h148a6 6 0 0 1 6 6v88a6 6 0 0 1-6 6h-148a6 6 0 0 1-6-6z" stroke="#3a414a" fill="#ffdda6"/><use xlink:href="#l" transform="matrix(1,0,0,1,1772.4999862399188,352) translate(22.969135802469125 29.65277777777778)"/><use xlink:href="#m" transform="matrix(1,0,0,1,1772.4999862399188,352) translate(35.345679012345684 56.31944444444445)"/><path d="M1520.5 390h223.12" stroke="#fc9432" fill="none"/><path d="M1520.5 390.5h-.5v-1h.5z" stroke="#fc9432" stroke-width=".05" fill="#fc9432"/><path d="M1758.38 390l-14.26 4.63v-9.26z" stroke="#fc9432" fill="#fc9432"/><path d="M1921.5 390h181.62" stroke="#fc9432" fill="none"/><path d="M1921.5 390.5h-.5v-1h.5z" stroke="#fc9432" stroke-width=".05" fill="#fc9432"/><path d="M2117.88 390l-14.26 4.63v-9.26z" stroke="#fc9432" fill="#fc9432"/><path d="M2120 356a6 6 0 0 1 6-6h88a6 6 0 0 1 6 6v68a6 6 0 0 1-6 6h-88a6 6 0 0 1-6-6z" stroke="#3a414a" fill="#fcfcca"/><use xlink:href="#n" transform="matrix(1,0,0,1,2132,362) translate(9.60493827160494 19.111111111111114)"/><use xlink:href="#o" transform="matrix(1,0,0,1,2132,362) translate(-0.7962962962962976 45.777777777777786)"/><path d="M1640 316a6 6 0 0 1 6-6h68a6 6 0 0 1 6 6v48a6 6 0 0 1-6 6h-68a6 6 0 0 1-6-6z" stroke="#3a414a" fill="#fe7070"/><use xlink:href="#e" transform="matrix(1,0,0,1,1652,322) translate(-0.39506172839505993 22.444444444444443)"/><path d="M1961 316a6 6 0 0 1 6-6h68a6 6 0 0 1 6 6v48a6 6 0 0 1-6 6h-68a6 6 0 0 1-6-6z" stroke="#3a414a" fill="#fe7070"/><use xlink:href="#e" transform="matrix(1,0,0,1,1972.9999724798377,322) translate(-0.39506172839505993 22.444444444444443)"/><path d="M800.88 391.33h541.74" stroke="#3a414a" fill="none"/><path d="M800.9 391.83h-.52v-1h.5z" stroke="#3a414a" stroke-width=".05" fill="#3a414a"/><path d="M1357.38 391.33l-14.26 4.64v-9.27z" stroke="#3a414a" fill="#3a414a"/><path d="M1280.25 706a6 6 0 0 1 6-6h307.6a6 6 0 0 1 6 6v248a6 6 0 0 1-6 6h-307.6a6 6 0 0 1-6-6z" stroke="#3a414a" fill="#e3fae3"/><path d="M1280.5 726a6 6 0 0 1 6-6h308a6 6 0 0 1 6 6v48a6 6 0 0 1-6 6h-308a6 6 0 0 1-6-6z" stroke="#000" stroke-opacity="0" fill-opacity="0"/><use xlink:href="#a" transform="matrix(1,0,0,1,1285.4999242690046,725) translate(99.62962962962962 30.27777777777778)"/><path d="M1360.5 806a6 6 0 0 1 6-6h148a6 6 0 0 1 6 6v88a6 6 0 0 1-6 6h-148a6 6 0 0 1-6-6z" stroke="#3a414a" fill="#cfe4ff"/><use xlink:href="#p" transform="matrix(1,0,0,1,1372.4999242690046,812) translate(21.33333333333333 29.65277777777778)"/><use xlink:href="#j" transform="matrix(1,0,0,1,1372.4999242690046,812) translate(31.641975308641975 56.31944444444445)"/><path d="M800.88 849.33h542.74" stroke="#3a414a" fill="none"/><path d="M800.9 849.83h-.52v-1h.5z" stroke="#3a414a" stroke-width=".05" fill="#3a414a"/><path d="M1358.38 849.33l-14.26 4.64v-9.27z" stroke="#3a414a" fill="#3a414a"/><path d="M2079.38 706a6 6 0 0 1 6-6h308a6 6 0 0 1 6 6v248a6 6 0 0 1-6 6h-308a6 6 0 0 1-6-6z" stroke="#3a414a" fill="#fcfcca"/><path d="M2079.5 726a6 6 0 0 1 6-6h308a6 6 0 0 1 6 6v48a6 6 0 0 1-6 6h-308a6 6 0 0 1-6-6z" stroke="#000" stroke-opacity="0" fill-opacity="0"/><use xlink:href="#f" transform="matrix(1,0,0,1,2084.50005,725) translate(68.67283950617285 30.27777777777778)"/><use xlink:href="#g" transform="matrix(1,0,0,1,2084.50005,725) translate(162.37654320987656 30.27777777777778)"/><path d="M2119.88 816a6 6 0 0 1 6-6h88a6 6 0 0 1 6 6v68a6 6 0 0 1-6 6h-88a6 6 0 0 1-6-6z" stroke="#3a414a" fill="#fcfcca"/><use xlink:href="#n" transform="matrix(1,0,0,1,2131.8750189327498,822) translate(9.60493827160494 19.111111111111114)"/><use xlink:href="#o" transform="matrix(1,0,0,1,2131.8750189327498,822) translate(-0.7962962962962976 45.777777777777786)"/><path d="M1521.5 850H2103" stroke="#1071e5" fill="none"/><path d="M1521.5 850.5h-.5v-1h.5z" stroke="#1071e5" stroke-width=".05" fill="#1071e5"/><path d="M2117.76 850l-14.27 4.63v-9.26z" stroke="#1071e5" fill="#1071e5"/><path d="M1881 776a6 6 0 0 1 6-6h68a6 6 0 0 1 6 6v48a6 6 0 0 1-6 6h-68a6 6 0 0 1-6-6z" stroke="#3a414a" fill="#fe7070"/><g><use xlink:href="#e" transform="matrix(1,0,0,1,1892.9999724798377,782) translate(-0.39506172839505993 22.444444444444443)"/></g><path d="M999.26 776a6 6 0 0 1 6-6h68a6 6 0 0 1 6 6v48a6 6 0 0 1-6 6h-68a6 6 0 0 1-6-6z" stroke="#3a414a" fill="#fe7070"/><g><use xlink:href="#e" transform="matrix(1,0,0,1,1011.2584760216948,782) translate(-0.39506172839505993 22.444444444444443)"/></g><path d="M803.87 914.24a6 6 0 0 1 0-8.48l21.5-21.52a2.48 2.48 0 0 1 4.25 1.76v3a6 6 0 0 0 6 6h407.88a6 6 0 0 0 6-6v-3a2.48 2.48 0 0 1 4.24-1.76l21.52 21.52a6 6 0 0 1 0 8.48l-21.52 21.52a2.48 2.48 0 0 1-4.24-1.76v-3a6 6 0 0 0-6-6H835.62a6 6 0 0 0-6 6v3a2.48 2.48 0 0 1-4.24 1.76z" stroke="#3a414a" fill="#e3fae3"/><path d="M919.38 896a6 6 0 0 1 6-6h228a6 6 0 0 1 6 6v28a6 6 0 0 1-6 6h-228a6 6 0 0 1-6-6z" stroke="#000" stroke-opacity="0" fill-opacity="0"/><g><use xlink:href="#k" transform="matrix(1,0,0,1,924.37503269283,895) translate(50.8641975308642 19.71527777777778)"/><use xlink:href="#j" transform="matrix(1,0,0,1,924.37503269283,895) translate(106.41975308641975 19.71527777777778)"/></g><defs><path fill="#3a414a" d="M67-125c0 53 21 87 73 88 37 1 54-22 65-47l45 17C233-25 199 4 140 4 58 4 20-42 15-125 8-235 124-281 211-232c18 10 29 29 36 50l-46 12c-8-25-30-41-62-41-52 0-71 34-72 86" id="q"/><path fill="#3a414a" d="M110-194c64 0 96 36 96 99 0 64-35 99-97 99-61 0-95-36-95-99 0-62 34-99 96-99zm-1 164c35 0 45-28 45-65 0-40-10-65-43-65-34 0-45 26-45 65 0 36 10 65 43 65" id="r"/><path fill="#3a414a" d="M135-194c87-1 58 113 63 194h-50c-7-57 23-157-34-157-59 0-34 97-39 157H25l-1-190h47c2 12-1 28 3 38 12-26 28-41 61-42" id="s"/><path fill="#3a414a" d="M185-48c-13 30-37 53-82 52C43 2 14-33 14-96s30-98 90-98c62 0 83 45 84 108H66c0 31 8 55 39 56 18 0 30-7 34-22zm-45-69c5-46-57-63-70-21-2 6-4 13-4 21h74" id="t"/><path fill="#3a414a" d="M190-63c-7 42-38 67-86 67-59 0-84-38-90-98-12-110 154-137 174-36l-49 2c-2-19-15-32-35-32-30 0-35 28-38 64-6 74 65 87 74 30" id="u"/><path fill="#3a414a" d="M115-3C79 11 28 4 28-45v-112H4v-33h27l15-45h31v45h36v33H77v99c-1 23 16 31 38 25v30" id="v"/><path fill="#3a414a" d="M135-150c-39-12-60 13-60 57V0H25l-1-190h47c2 13-1 29 3 40 6-28 27-53 61-41v41" id="w"/><g id="a"><use transform="matrix(0.06172839506172839,0,0,0.06172839506172839,0,0)" xlink:href="#q"/><use transform="matrix(0.06172839506172839,0,0,0.06172839506172839,15.987654320987653,0)" xlink:href="#r"/><use transform="matrix(0.06172839506172839,0,0,0.06172839506172839,29.50617283950617,0)" xlink:href="#s"/><use transform="matrix(0.06172839506172839,0,0,0.06172839506172839,43.02469135802469,0)" xlink:href="#s"/><use transform="matrix(0.06172839506172839,0,0,0.06172839506172839,56.54320987654321,0)" xlink:href="#t"/><use transform="matrix(0.06172839506172839,0,0,0.06172839506172839,68.88888888888889,0)" xlink:href="#u"/><use transform="matrix(0.06172839506172839,0,0,0.06172839506172839,81.23456790123457,0)" xlink:href="#v"/><use transform="matrix(0.06172839506172839,0,0,0.06172839506172839,88.58024691358025,0)" xlink:href="#r"/><use transform="matrix(0.06172839506172839,0,0,0.06172839506172839,102.09876543209877,0)" xlink:href="#w"/></g><path fill="#3a414a" d="M182-130c37 4 62 22 62 59C244 23 116-4 24 0v-248c84 5 203-23 205 63 0 31-19 50-47 55zM76-148c40-3 101 13 101-30 0-44-60-28-101-31v61zm0 110c48-3 116 14 116-37 0-48-69-32-116-35v72" id="x"/><path fill="#3a414a" d="M133-34C117-15 103 5 69 4 32 3 11-16 11-54c-1-60 55-63 116-61 1-26-3-47-28-47-18 1-26 9-28 27l-52-2c7-38 36-58 82-57s74 22 75 68l1 82c-1 14 12 18 25 15v27c-30 8-71 5-69-32zm-48 3c29 0 43-24 42-57-32 0-66-3-65 30 0 17 8 27 23 27" id="y"/><path fill="#3a414a" d="M147 0L96-86 75-71V0H25v-261h50v150l67-79h53l-66 74L201 0h-54" id="z"/><path fill="#3a414a" d="M135-194c52 0 70 43 70 98 0 56-19 99-73 100-30 1-46-15-58-35L72 0H24l1-261h50v104c11-23 29-37 60-37zM114-30c31 0 40-27 40-66 0-37-7-63-39-63s-41 28-41 65c0 36 8 64 40 64" id="A"/><g id="b"><use transform="matrix(0.06172839506172839,0,0,0.06172839506172839,0,0)" xlink:href="#x"/><use transform="matrix(0.06172839506172839,0,0,0.06172839506172839,15.987654320987653,0)" xlink:href="#y"/><use transform="matrix(0.06172839506172839,0,0,0.06172839506172839,28.333333333333332,0)" xlink:href="#u"/><use transform="matrix(0.06172839506172839,0,0,0.06172839506172839,40.67901234567901,0)" xlink:href="#z"/><use transform="matrix(0.06172839506172839,0,0,0.06172839506172839,53.02469135802469,0)" xlink:href="#A"/><use transform="matrix(0.06172839506172839,0,0,0.06172839506172839,66.5432098765432,0)" xlink:href="#r"/><use transform="matrix(0.06172839506172839,0,0,0.06172839506172839,80.06172839506172,0)" xlink:href="#s"/><use transform="matrix(0.06172839506172839,0,0,0.06172839506172839,93.58024691358024,0)" xlink:href="#t"/></g><path fill="#1071e5" d="M875 0v-623H353V0H162v-1349h191v566h522v-566h191V0H875" id="B"/><path fill="#1071e5" d="M709-1193V0H519v-1193H76v-156h1076v156H709" id="C"/><path fill="#1071e5" d="M622-1349c296 4 497 117 497 404 0 282-193 424-485 431H353V0H162v-1349h460zm-15 684c195-3 320-88 320-277 0-184-129-255-328-254H353v531h254" id="D"/><g id="c"><use transform="matrix(0.01302083333333333,0,0,0.01302083333333333,0,0)" xlink:href="#B"/><use transform="matrix(0.01302083333333333,0,0,0.01302083333333333,16.002604166666664,0)" xlink:href="#C"/><use transform="matrix(0.01302083333333333,0,0,0.01302083333333333,32.00520833333333,0)" xlink:href="#C"/><use transform="matrix(0.01302083333333333,0,0,0.01302083333333333,48.00781249999999,0)" xlink:href="#D"/></g><path fill="#1071e5" d="M102-681c0-398 126-689 513-689 165 0 291 58 379 174s132 287 132 515c-1 318-88 554-298 657-123 61-317 58-438-3-206-104-288-341-288-654zm749 406c94-160 97-656-5-807-57-85-130-132-231-132-104 0-178 47-234 132-101 153-99 655 1 809 57 89 130 138 232 138 109 0 184-49 237-140" id="E"/><path fill="#1071e5" d="M614-1226c-167 1-283 53-283 213 0 183 186 193 334 234 230 63 463 120 463 409 0 286-219 387-518 390C309 23 131-98 79-338l185-37c34 165 149 248 351 246 184-2 324-58 324-238 0-203-207-221-372-266-210-57-422-111-422-377 0-267 201-356 470-360 279-5 430 101 480 324l-188 33c-28-141-121-215-293-213" id="F"/><g id="d"><use transform="matrix(0.01302083333333333,0,0,0.01302083333333333,0,0)" xlink:href="#D"/><use transform="matrix(0.01302083333333333,0,0,0.01302083333333333,16.002604166666664,0)" xlink:href="#E"/><use transform="matrix(0.01302083333333333,0,0,0.01302083333333333,32.00520833333333,0)" xlink:href="#F"/><use transform="matrix(0.01302083333333333,0,0,0.01302083333333333,48.00781249999999,0)" xlink:href="#C"/></g><path fill="#3a414a" d="M30 0v-248h187v28H63v79h144v27H63v87h162V0H30" id="G"/><path fill="#3a414a" d="M108 0H70L1-190h34L89-25l56-165h34" id="H"/><path fill="#3a414a" d="M100-194c63 0 86 42 84 106H49c0 40 14 67 53 68 26 1 43-12 49-29l28 8c-11 28-37 45-77 45C44 4 14-33 15-96c1-61 26-98 85-98zm52 81c6-60-76-77-97-28-3 7-6 17-6 28h103" id="I"/><path fill="#3a414a" d="M117-194c89-4 53 116 60 194h-32v-121c0-31-8-49-39-48C34-167 62-67 57 0H25l-1-190h30c1 10-1 24 2 32 11-22 29-35 61-36" id="J"/><path fill="#3a414a" d="M59-47c-2 24 18 29 38 22v24C64 9 27 4 27-40v-127H5v-23h24l9-43h21v43h35v23H59v120" id="K"/><g id="e"><use transform="matrix(0.06172839506172839,0,0,0.06172839506172839,0,0)" xlink:href="#G"/><use transform="matrix(0.06172839506172839,0,0,0.06172839506172839,14.814814814814813,0)" xlink:href="#H"/><use transform="matrix(0.06172839506172839,0,0,0.06172839506172839,25.925925925925924,0)" xlink:href="#I"/><use transform="matrix(0.06172839506172839,0,0,0.06172839506172839,38.2716049382716,0)" xlink:href="#J"/><use transform="matrix(0.06172839506172839,0,0,0.06172839506172839,50.61728395061728,0)" xlink:href="#K"/></g><path fill="#3a414a" d="M24 0v-248h195v40H76v63h132v40H76v65h150V0H24" id="L"/><path fill="#3a414a" d="M144 0l-44-69L55 0H2l70-98-66-92h53l41 62 40-62h54l-67 91 71 99h-54" id="M"/><path fill="#3a414a" d="M25 0v-261h50V0H25" id="N"/><g id="f"><use transform="matrix(0.06172839506172839,0,0,0.06172839506172839,0,0)" xlink:href="#L"/><use transform="matrix(0.06172839506172839,0,0,0.06172839506172839,14.814814814814813,0)" xlink:href="#M"/><use transform="matrix(0.06172839506172839,0,0,0.06172839506172839,27.160493827160494,0)" xlink:href="#v"/><use transform="matrix(0.06172839506172839,0,0,0.06172839506172839,34.50617283950617,0)" xlink:href="#t"/><use transform="matrix(0.06172839506172839,0,0,0.06172839506172839,46.85185185185185,0)" xlink:href="#w"/><use transform="matrix(0.06172839506172839,0,0,0.06172839506172839,55.49382716049382,0)" xlink:href="#s"/><use transform="matrix(0.06172839506172839,0,0,0.06172839506172839,69.01234567901234,0)" xlink:href="#y"/><use transform="matrix(0.06172839506172839,0,0,0.06172839506172839,81.35802469135803,0)" xlink:href="#N"/></g><path fill="#3a414a" d="M169-182c-1-43-94-46-97-3 18 66 151 10 154 114 3 95-165 93-204 36-6-8-10-19-12-30l50-8c3 46 112 56 116 5-17-69-150-10-154-114-4-87 153-88 188-35 5 8 8 18 10 28" id="O"/><path fill="#3a414a" d="M123 10C108 53 80 86 19 72V37c35 8 53-11 59-39L3-190h52l48 148c12-52 28-100 44-148h51" id="P"/><path fill="#3a414a" d="M137-138c1-29-70-34-71-4 15 46 118 7 119 86 1 83-164 76-172 9l43-7c4 19 20 25 44 25 33 8 57-30 24-41C81-84 22-81 20-136c-2-80 154-74 161-7" id="Q"/><path fill="#3a414a" d="M220-157c-53 9-28 100-34 157h-49v-107c1-27-5-49-29-50C55-147 81-57 75 0H25l-1-190h47c2 12-1 28 3 38 10-53 101-56 108 0 13-22 24-43 59-42 82 1 51 116 57 194h-49v-107c-1-25-5-48-29-50" id="R"/><g id="g"><use transform="matrix(0.06172839506172839,0,0,0.06172839506172839,0,0)" xlink:href="#O"/><use transform="matrix(0.06172839506172839,0,0,0.06172839506172839,14.814814814814813,0)" xlink:href="#P"/><use transform="matrix(0.06172839506172839,0,0,0.06172839506172839,27.160493827160494,0)" xlink:href="#Q"/><use transform="matrix(0.06172839506172839,0,0,0.06172839506172839,39.50617283950617,0)" xlink:href="#v"/><use transform="matrix(0.06172839506172839,0,0,0.06172839506172839,46.85185185185185,0)" xlink:href="#t"/><use transform="matrix(0.06172839506172839,0,0,0.06172839506172839,59.197530864197525,0)" xlink:href="#R"/></g><path fill="#3a414a" d="M205 0l-28-72H64L36 0H1l101-248h38L239 0h-34zm-38-99l-47-123c-12 45-31 82-46 123h93" id="S"/><path fill="#3a414a" d="M240 0l2-218c-23 76-54 145-80 218h-23L58-218 59 0H30v-248h44l77 211c21-75 51-140 76-211h43V0h-30" id="T"/><path fill="#3a414a" d="M140-251c81 0 123 46 123 126C263-53 228-8 163 1c7 30 30 48 69 40v23c-55 16-95-15-103-61C56-3 17-48 17-125c0-80 42-126 123-126zm0 227c63 0 89-41 89-101s-29-99-89-99c-61 0-89 39-89 99S79-25 140-24" id="U"/><path fill="#3a414a" d="M30-248c87 1 191-15 191 75 0 78-77 80-158 76V0H30v-248zm33 125c57 0 124 11 124-50 0-59-68-47-124-48v98" id="V"/><g id="h"><use transform="matrix(0.06172839506172839,0,0,0.06172839506172839,0,0)" xlink:href="#S"/><use transform="matrix(0.06172839506172839,0,0,0.06172839506172839,14.814814814814813,0)" xlink:href="#T"/><use transform="matrix(0.06172839506172839,0,0,0.06172839506172839,33.2716049382716,0)" xlink:href="#U"/><use transform="matrix(0.06172839506172839,0,0,0.06172839506172839,50.55555555555555,0)" xlink:href="#V"/></g><path fill="#3a414a" d="M84 4C-5 8 30-112 23-190h32v120c0 31 7 50 39 49 72-2 45-101 50-169h31l1 190h-30c-1-10 1-25-2-33-11 22-28 36-60 37" id="W"/><path fill="#3a414a" d="M115-194c53 0 69 39 70 98 0 66-23 100-70 100C84 3 66-7 56-30L54 0H23l1-261h32v101c10-23 28-34 59-34zm-8 174c40 0 45-34 45-75 0-40-5-75-45-74-42 0-51 32-51 76 0 43 10 73 51 73" id="X"/><path fill="#3a414a" d="M24 0v-261h32V0H24" id="Y"/><path fill="#3a414a" d="M24-231v-30h32v30H24zM24 0v-190h32V0H24" id="Z"/><path fill="#3a414a" d="M135-143c-3-34-86-38-87 0 15 53 115 12 119 90S17 21 10-45l28-5c4 36 97 45 98 0-10-56-113-15-118-90-4-57 82-63 122-42 12 7 21 19 24 35" id="aa"/><path fill="#3a414a" d="M106-169C34-169 62-67 57 0H25v-261h32l-1 103c12-21 28-36 61-36 89 0 53 116 60 194h-32v-121c2-32-8-49-39-48" id="ab"/><path fill="#3a414a" d="M114-163C36-179 61-72 57 0H25l-1-190h30c1 12-1 29 2 39 6-27 23-49 58-41v29" id="ac"/><g id="i"><use transform="matrix(0.06172839506172839,0,0,0.06172839506172839,0,0)" xlink:href="#V"/><use transform="matrix(0.06172839506172839,0,0,0.06172839506172839,14.814814814814813,0)" xlink:href="#W"/><use transform="matrix(0.06172839506172839,0,0,0.06172839506172839,27.160493827160494,0)" xlink:href="#X"/><use transform="matrix(0.06172839506172839,0,0,0.06172839506172839,39.50617283950617,0)" xlink:href="#Y"/><use transform="matrix(0.06172839506172839,0,0,0.06172839506172839,44.382716049382715,0)" xlink:href="#Z"/><use transform="matrix(0.06172839506172839,0,0,0.06172839506172839,49.25925925925926,0)" xlink:href="#aa"/><use transform="matrix(0.06172839506172839,0,0,0.06172839506172839,60.37037037037037,0)" xlink:href="#ab"/><use transform="matrix(0.06172839506172839,0,0,0.06172839506172839,72.71604938271605,0)" xlink:href="#I"/><use transform="matrix(0.06172839506172839,0,0,0.06172839506172839,85.06172839506173,0)" xlink:href="#ac"/></g><path fill="#3a414a" d="M100-194c62-1 85 37 85 99 1 63-27 99-86 99S16-35 15-95c0-66 28-99 85-99zM99-20c44 1 53-31 53-75 0-43-8-75-51-75s-53 32-53 75 10 74 51 75" id="ad"/><path fill="#3a414a" d="M85-194c31 0 48 13 60 33l-1-100h32l1 261h-30c-2-10 0-23-3-31C134-8 116 4 85 4 32 4 16-35 15-94c0-66 23-100 70-100zm9 24c-40 0-46 34-46 75 0 40 6 74 45 74 42 0 51-32 51-76 0-42-9-74-50-73" id="ae"/><g id="j"><use transform="matrix(0.06172839506172839,0,0,0.06172839506172839,0,0)" xlink:href="#T"/><use transform="matrix(0.06172839506172839,0,0,0.06172839506172839,18.456790123456788,0)" xlink:href="#ad"/><use transform="matrix(0.06172839506172839,0,0,0.06172839506172839,30.80246913580247,0)" xlink:href="#ae"/><use transform="matrix(0.06172839506172839,0,0,0.06172839506172839,43.148148148148145,0)" xlink:href="#W"/><use transform="matrix(0.06172839506172839,0,0,0.06172839506172839,55.49382716049382,0)" xlink:href="#Y"/><use transform="matrix(0.06172839506172839,0,0,0.06172839506172839,60.37037037037037,0)" xlink:href="#I"/></g><path fill="#3a414a" d="M185-189c-5-48-123-54-124 2 14 75 158 14 163 119 3 78-121 87-175 55-17-10-28-26-33-46l33-7c5 56 141 63 141-1 0-78-155-14-162-118-5-82 145-84 179-34 5 7 8 16 11 25" id="af"/><path fill="#3a414a" d="M179-190L93 31C79 59 56 82 12 73V49c39 6 53-20 64-50L1-190h34L92-34l54-156h33" id="ag"/><path fill="#3a414a" d="M96-169c-40 0-48 33-48 73s9 75 48 75c24 0 41-14 43-38l32 2c-6 37-31 61-74 61-59 0-76-41-82-99-10-93 101-131 147-64 4 7 5 14 7 22l-32 3c-4-21-16-35-41-35" id="ah"/><g id="k"><use transform="matrix(0.06172839506172839,0,0,0.06172839506172839,0,0)" xlink:href="#af"/><use transform="matrix(0.06172839506172839,0,0,0.06172839506172839,14.814814814814813,0)" xlink:href="#ag"/><use transform="matrix(0.06172839506172839,0,0,0.06172839506172839,25.925925925925924,0)" xlink:href="#J"/><use transform="matrix(0.06172839506172839,0,0,0.06172839506172839,38.2716049382716,0)" xlink:href="#ah"/></g><path fill="#3a414a" d="M141-36C126-15 110 5 73 4 37 3 15-17 15-53c-1-64 63-63 125-63 3-35-9-54-41-54-24 1-41 7-42 31l-33-3c5-37 33-52 76-52 45 0 72 20 72 64v82c-1 20 7 32 28 27v20c-31 9-61-2-59-35zM48-53c0 20 12 33 32 33 41-3 63-29 60-74-43 2-92-5-92 41" id="ai"/><path fill="#3a414a" d="M177-190C167-65 218 103 67 71c-23-6-38-20-44-43l32-5c15 47 100 32 89-28v-30C133-14 115 1 83 1 29 1 15-40 15-95c0-56 16-97 71-98 29-1 48 16 59 35 1-10 0-23 2-32h30zM94-22c36 0 50-32 50-73 0-42-14-75-50-75-39 0-46 34-46 75s6 73 46 73" id="aj"/><g id="l"><use transform="matrix(0.06172839506172839,0,0,0.06172839506172839,0,0)" xlink:href="#T"/><use transform="matrix(0.06172839506172839,0,0,0.06172839506172839,18.456790123456788,0)" xlink:href="#I"/><use transform="matrix(0.06172839506172839,0,0,0.06172839506172839,30.80246913580247,0)" xlink:href="#aa"/><use transform="matrix(0.06172839506172839,0,0,0.06172839506172839,41.91358024691358,0)" xlink:href="#aa"/><use transform="matrix(0.06172839506172839,0,0,0.06172839506172839,53.0246913580247,0)" xlink:href="#ai"/><use transform="matrix(0.06172839506172839,0,0,0.06172839506172839,65.37037037037038,0)" xlink:href="#aj"/><use transform="matrix(0.06172839506172839,0,0,0.06172839506172839,77.71604938271606,0)" xlink:href="#I"/></g><path fill="#3a414a" d="M160-131c35 5 61 23 61 61C221 17 115-2 30 0v-248c76 3 177-17 177 60 0 33-19 50-47 57zm-97-11c50-1 110 9 110-42 0-47-63-36-110-37v79zm0 115c55-2 124 14 124-45 0-56-70-42-124-44v89" id="ak"/><path fill="#3a414a" d="M143 0L79-87 56-68V0H24v-261h32v163l83-92h37l-77 82L181 0h-38" id="al"/><g id="m"><use transform="matrix(0.06172839506172839,0,0,0.06172839506172839,0,0)" xlink:href="#ak"/><use transform="matrix(0.06172839506172839,0,0,0.06172839506172839,14.814814814814813,0)" xlink:href="#ac"/><use transform="matrix(0.06172839506172839,0,0,0.06172839506172839,22.160493827160494,0)" xlink:href="#ad"/><use transform="matrix(0.06172839506172839,0,0,0.06172839506172839,34.50617283950617,0)" xlink:href="#al"/><use transform="matrix(0.06172839506172839,0,0,0.06172839506172839,45.61728395061728,0)" xlink:href="#I"/><use transform="matrix(0.06172839506172839,0,0,0.06172839506172839,57.962962962962955,0)" xlink:href="#ac"/></g><g id="n"><use transform="matrix(0.06172839506172839,0,0,0.06172839506172839,0,0)" xlink:href="#G"/><use transform="matrix(0.06172839506172839,0,0,0.06172839506172839,14.814814814814813,0)" xlink:href="#H"/><use transform="matrix(0.06172839506172839,0,0,0.06172839506172839,25.925925925925924,0)" xlink:href="#I"/><use transform="matrix(0.06172839506172839,0,0,0.06172839506172839,38.2716049382716,0)" xlink:href="#J"/><use transform="matrix(0.06172839506172839,0,0,0.06172839506172839,50.61728395061728,0)" xlink:href="#K"/></g><path fill="#3a414a" d="M197 0v-115H63V0H30v-248h33v105h134v-105h34V0h-34" id="am"/><g id="o"><use transform="matrix(0.06172839506172839,0,0,0.06172839506172839,0,0)" xlink:href="#am"/><use transform="matrix(0.06172839506172839,0,0,0.06172839506172839,15.987654320987653,0)" xlink:href="#ai"/><use transform="matrix(0.06172839506172839,0,0,0.06172839506172839,28.333333333333332,0)" xlink:href="#J"/><use transform="matrix(0.06172839506172839,0,0,0.06172839506172839,40.67901234567901,0)" xlink:href="#ae"/><use transform="matrix(0.06172839506172839,0,0,0.06172839506172839,53.02469135802469,0)" xlink:href="#Y"/><use transform="matrix(0.06172839506172839,0,0,0.06172839506172839,57.901234567901234,0)" xlink:href="#I"/><use transform="matrix(0.06172839506172839,0,0,0.06172839506172839,70.24691358024691,0)" xlink:href="#ac"/></g><path fill="#3a414a" d="M266 0h-40l-56-210L115 0H75L2-248h35L96-30l15-64 43-154h32l59 218 59-218h35" id="an"/><g id="p"><use transform="matrix(0.06172839506172839,0,0,0.06172839506172839,0,0)" xlink:href="#an"/><use transform="matrix(0.06172839506172839,0,0,0.06172839506172839,20.493827160493826,0)" xlink:href="#I"/><use transform="matrix(0.06172839506172839,0,0,0.06172839506172839,32.839506172839506,0)" xlink:href="#X"/><use transform="matrix(0.06172839506172839,0,0,0.06172839506172839,45.18518518518518,0)" xlink:href="#ab"/><use transform="matrix(0.06172839506172839,0,0,0.06172839506172839,57.53086419753086,0)" xlink:href="#ad"/><use transform="matrix(0.06172839506172839,0,0,0.06172839506172839,69.87654320987654,0)" xlink:href="#ad"/><use transform="matrix(0.06172839506172839,0,0,0.06172839506172839,82.22222222222223,0)" xlink:href="#al"/></g></defs></g></svg>